<?xml version="1.0" encoding="UTF-8"?><svg id="Layer_2" xmlns="http://www.w3.org/2000/svg" viewBox="0 0 141.7 141.7"><defs><style>.cls-1{fill:#f0619f;}.cls-2{fill:#d8d8d8;}.cls-3{fill:#d878a8;}.cls-4{fill:#f6b0ce;}.cls-5{fill:#8d70b2;}.cls-6{fill:#171717;}.cls-7{fill:#f9d0df;}.cls-8{fill:#a689bf;}.cls-9{fill:#f0f9f9;}</style></defs><g id="Dream_Ball"><rect class="cls-3" x="9.45" y="47.23" width="9.45" height="9.45" transform="translate(66.13 37.79) rotate(90)"/><rect class="cls-3" x="9.45" y="56.68" width="9.45" height="9.45" transform="translate(75.57 47.23) rotate(90)"/><rect class="cls-3" x="18.89" y="66.13" width="9.45" height="9.45" transform="translate(94.47 47.23) rotate(90)"/><rect class="cls-3" x="28.34" y="66.13" width="9.45" height="9.45" transform="translate(103.91 37.79) rotate(90)"/><rect class="cls-3" x="103.91" y="18.89" width="9.45" height="9.45" transform="translate(132.26 -85.02) rotate(90)"/><rect class="cls-3" x="113.36" y="28.34" width="9.45" height="9.45" transform="translate(151.15 -85.02) rotate(90)"/><rect class="cls-3" x="113.36" y="37.79" width="9.45" height="9.45" transform="translate(160.6 -75.57) rotate(90)"/><rect class="cls-3" x="113.36" y="47.23" width="9.45" height="9.45" transform="translate(170.04 -66.13) rotate(90)"/><rect class="cls-3" x="122.81" y="47.23" width="9.45" height="9.45" transform="translate(179.49 -75.57) rotate(90)"/><rect class="cls-3" x="103.91" y="47.23" width="9.45" height="9.45" transform="translate(160.6 -56.68) rotate(90)"/><rect class="cls-3" x="94.47" y="56.68" width="9.45" height="9.45" transform="translate(160.6 -37.79) rotate(90)"/><rect class="cls-3" x="85.02" y="56.68" width="9.45" height="9.45" transform="translate(151.15 -28.34) rotate(90)"/><rect class="cls-3" x="75.57" y="66.13" width="9.45" height="9.45" transform="translate(151.15 -9.45) rotate(90)"/><rect class="cls-3" x="75.57" y="75.57" width="9.45" height="9.45" transform="translate(160.6 0) rotate(90)"/><rect class="cls-3" x="85.02" y="75.57" width="9.45" height="9.45" transform="translate(170.04 -9.45) rotate(90)"/><rect class="cls-3" x="94.47" y="75.57" width="9.45" height="9.45" transform="translate(179.49 -18.89) rotate(90)"/><rect class="cls-3" x="66.13" y="66.13" width="9.45" height="9.45" transform="translate(141.7 0) rotate(90)"/><rect class="cls-3" x="85.02" y="66.13" width="9.45" height="9.45" transform="translate(160.6 -18.89) rotate(90)"/><rect class="cls-3" x="94.47" y="66.13" width="9.45" height="9.45" transform="translate(170.04 -28.34) rotate(90)"/><rect class="cls-3" x="103.91" y="66.13" width="9.45" height="9.45" transform="translate(179.49 -37.79) rotate(90)"/><rect class="cls-3" x="103.91" y="56.68" width="9.45" height="9.45" transform="translate(170.04 -47.23) rotate(90)"/><rect class="cls-3" x="113.36" y="56.68" width="9.45" height="9.45" transform="translate(179.49 -56.68) rotate(90)"/><rect class="cls-3" x="122.81" y="56.68" width="9.45" height="9.45" transform="translate(188.94 -66.13) rotate(90)"/><rect class="cls-3" x="113.36" y="66.13" width="9.45" height="9.45" transform="translate(188.94 -47.23) rotate(90)"/><rect class="cls-6" x="122.81" y="66.13" width="9.45" height="9.45"/><rect class="cls-6" x="122.81" y="75.57" width="9.45" height="9.45"/><rect class="cls-6" x="113.36" y="75.57" width="9.45" height="9.45"/><rect class="cls-6" x="103.91" y="75.57" width="9.45" height="9.45"/><rect class="cls-6" x="103.91" y="85.02" width="9.45" height="9.45"/><rect class="cls-5" x="113.36" y="85.02" width="9.45" height="9.45"/><rect class="cls-6" x="94.47" y="85.02" width="9.45" height="9.45"/><rect class="cls-6" x="37.79" y="66.13" width="9.45" height="9.45"/><rect class="cls-6" x="28.34" y="75.57" width="9.45" height="9.45"/><rect class="cls-6" x="28.34" y="85.02" width="9.45" height="9.45" transform="translate(66.13 179.49) rotate(180)"/><rect class="cls-6" x="28.34" y="94.47" width="9.45" height="9.45" transform="translate(66.13 198.38) rotate(180)"/><rect class="cls-6" x="37.79" y="103.91" width="9.45" height="9.45" transform="translate(85.02 217.28) rotate(180)"/><rect class="cls-6" x="18.89" y="85.02" width="9.45" height="9.45" transform="translate(47.23 179.49) rotate(180)"/><rect class="cls-6" x="18.89" y="75.57" width="9.45" height="9.45" transform="translate(47.23 160.6) rotate(180)"/><rect class="cls-6" x="9.45" y="75.57" width="9.45" height="9.45" transform="translate(28.34 160.6) rotate(180)"/><rect class="cls-6" x="9.45" y="66.13" width="9.45" height="9.45" transform="translate(28.34 141.7) rotate(180)"/><rect class="cls-6" x="56.68" y="66.13" width="9.45" height="9.45"/><rect class="cls-6" x="66.13" y="75.57" width="9.45" height="9.45"/><rect class="cls-6" x="66.13" y="85.02" width="9.45" height="9.45" transform="translate(160.6 18.89) rotate(90)"/><rect class="cls-6" x="75.57" y="85.02" width="9.45" height="9.45" transform="translate(170.04 9.45) rotate(90)"/><rect class="cls-6" x="75.57" y="94.47" width="9.45" height="9.45" transform="translate(179.49 18.89) rotate(90)"/><rect class="cls-6" x="85.02" y="94.47" width="9.45" height="9.45" transform="translate(188.94 9.45) rotate(90)"/><rect class="cls-5" x="94.47" y="94.47" width="9.45" height="9.45" transform="translate(198.38 0) rotate(90)"/><rect class="cls-6" x="85.02" y="85.02" width="9.45" height="9.45" transform="translate(179.49 0) rotate(90)"/><rect class="cls-6" x="66.13" y="94.47" width="9.45" height="9.45" transform="translate(170.04 28.34) rotate(90)"/><rect class="cls-6" x="56.68" y="103.91" width="9.45" height="9.45" transform="translate(170.04 47.23) rotate(90)"/><rect class="cls-6" x="47.23" y="103.91" width="9.45" height="9.45" transform="translate(160.6 56.68) rotate(90)"/><rect class="cls-6" x="47.23" y="66.13" width="9.45" height="9.45"/><rect class="cls-3" x="113.36" y="94.47" width="9.45" height="9.45"/><rect class="cls-3" x="122.81" y="85.02" width="9.45" height="9.45"/><rect class="cls-5" x="113.36" y="103.91" width="9.45" height="9.45"/><rect class="cls-3" x="94.47" y="103.91" width="9.45" height="9.45"/><rect class="cls-5" x="85.02" y="113.36" width="9.45" height="9.45"/><rect class="cls-5" x="75.57" y="113.36" width="9.45" height="9.45"/><rect class="cls-5" x="66.13" y="122.81" width="9.45" height="9.45"/><rect class="cls-5" x="75.57" y="122.81" width="9.45" height="9.45"/><rect class="cls-5" x="85.02" y="122.81" width="9.45" height="9.45"/><rect class="cls-5" x="56.68" y="122.81" width="9.45" height="9.45"/><rect class="cls-5" x="47.23" y="122.81" width="9.45" height="9.45"/><rect class="cls-2" x="37.79" y="75.57" width="9.45" height="9.45"/><rect class="cls-2" x="56.68" y="75.57" width="9.45" height="9.45"/><rect class="cls-2" x="56.68" y="94.47" width="9.45" height="9.45"/><rect class="cls-2" x="37.79" y="94.47" width="9.45" height="9.45"/><rect class="cls-5" x="28.34" y="113.36" width="9.45" height="9.45"/><rect class="cls-5" x="18.89" y="103.91" width="9.45" height="9.45"/><rect class="cls-8" x="28.34" y="103.91" width="9.45" height="9.45"/><rect class="cls-5" x="94.47" y="113.36" width="9.45" height="9.45"/><rect class="cls-5" x="103.6" y="113.36" width="9.45" height="9.45"/><rect class="cls-5" x="103.91" y="103.91" width="9.45" height="9.45"/><rect class="cls-9" x="47.23" y="75.57" width="9.45" height="9.45"/><rect class="cls-9" x="47.23" y="85.02" width="9.45" height="9.45"/><rect class="cls-9" x="37.79" y="85.02" width="9.45" height="9.45"/><rect class="cls-9" x="56.68" y="85.02" width="9.45" height="9.45"/><rect class="cls-9" x="47.23" y="94.47" width="9.45" height="9.45"/><rect class="cls-4" x="47.23" y="9.45" width="9.45" height="9.45"/><rect class="cls-7" x="37.79" y="18.89" width="9.45" height="9.45"/><rect class="cls-3" x="47.23" y="18.89" width="9.45" height="9.45"/><rect class="cls-1" x="56.68" y="18.89" width="9.45" height="9.45"/><rect class="cls-1" x="66.13" y="18.89" width="9.45" height="9.45"/><rect class="cls-4" x="75.57" y="18.89" width="9.45" height="9.45"/><rect class="cls-4" x="85.02" y="18.89" width="9.45" height="9.45"/><rect class="cls-4" x="28.34" y="18.89" width="9.45" height="9.45"/><rect class="cls-7" x="28.34" y="28.34" width="9.45" height="9.45"/><rect class="cls-7" x="28.34" y="37.79" width="9.45" height="9.45"/><rect class="cls-9" x="37.79" y="37.79" width="9.45" height="9.45"/><rect class="cls-7" x="37.79" y="47.23" width="9.45" height="9.45"/><rect class="cls-4" x="37.79" y="56.68" width="9.45" height="9.45"/><rect class="cls-4" x="47.23" y="56.68" width="9.45" height="9.45"/><rect class="cls-4" x="56.68" y="56.68" width="9.45" height="9.45"/><rect class="cls-4" x="66.13" y="56.68" width="9.45" height="9.45"/><rect class="cls-4" x="75.57" y="56.68" width="9.45" height="9.45"/><rect class="cls-4" x="75.57" y="47.23" width="9.45" height="9.45"/><rect class="cls-1" x="66.13" y="47.23" width="9.45" height="9.45"/><rect class="cls-1" x="56.68" y="47.23" width="9.45" height="9.45"/><rect class="cls-3" x="47.23" y="47.23" width="9.45" height="9.45"/><rect class="cls-9" x="47.23" y="37.79" width="9.45" height="9.45"/><rect class="cls-3" x="56.68" y="37.79" width="9.45" height="9.45"/><rect class="cls-1" x="66.13" y="37.79" width="9.45" height="9.45"/><rect class="cls-1" x="75.57" y="37.79" width="9.45" height="9.45"/><rect class="cls-4" x="85.02" y="37.79" width="9.45" height="9.45"/><rect class="cls-4" x="94.47" y="37.79" width="9.45" height="9.45"/><rect class="cls-4" x="94.47" y="28.34" width="9.45" height="9.45"/><rect class="cls-4" x="85.02" y="28.34" width="9.45" height="9.45"/><rect class="cls-1" x="75.57" y="28.34" width="9.45" height="9.45"/><rect class="cls-1" x="66.13" y="28.34" width="9.45" height="9.45"/><rect class="cls-3" x="56.68" y="28.34" width="9.45" height="9.45"/><rect class="cls-9" x="47.23" y="28.34" width="9.45" height="9.45"/><rect class="cls-9" x="37.79" y="28.34" width="9.45" height="9.45"/><rect class="cls-4" x="18.89" y="28.34" width="9.45" height="9.45"/><rect class="cls-4" x="18.89" y="37.79" width="9.45" height="9.45"/><rect class="cls-4" x="18.89" y="47.23" width="9.45" height="9.45"/><rect class="cls-4" x="28.34" y="47.23" width="9.45" height="9.45"/><rect class="cls-4" x="28.34" y="56.68" width="9.45" height="9.45"/><rect class="cls-4" x="18.89" y="56.68" width="9.45" height="9.45"/><rect class="cls-4" x="56.68" y="9.45" width="9.45" height="9.45"/><rect class="cls-4" x="66.13" y="9.45" width="9.45" height="9.45"/><rect class="cls-4" x="75.57" y="9.45" width="9.45" height="9.45"/><rect class="cls-4" x="85.02" y="9.45" width="9.45" height="9.45"/><rect class="cls-4" x="94.47" y="18.89" width="9.45" height="9.45"/><rect class="cls-4" x="103.91" y="28.34" width="9.45" height="9.45"/><rect class="cls-4" x="103.91" y="37.79" width="9.45" height="9.45"/><rect class="cls-4" x="94.47" y="47.23" width="9.45" height="9.45"/><rect class="cls-4" x="85.02" y="47.23" width="9.45" height="9.45"/><rect class="cls-5" x="103.91" y="94.47" width="9.45" height="9.45"/><rect class="cls-7" x="85.02" y="103.91" width="9.45" height="9.45"/><rect class="cls-7" x="75.57" y="103.91" width="9.45" height="9.45"/><rect class="cls-8" x="66.13" y="103.91" width="9.45" height="9.45"/><rect class="cls-8" x="66.13" y="113.36" width="9.45" height="9.45"/><rect class="cls-8" x="56.68" y="113.36" width="9.45" height="9.45"/><rect class="cls-8" x="47.23" y="113.36" width="9.45" height="9.45"/><rect class="cls-8" x="37.79" y="113.36" width="9.45" height="9.45"/><rect class="cls-7" x="9.45" y="85.02" width="9.45" height="9.45"/><rect class="cls-7" x="18.89" y="94.47" width="9.45" height="9.45"/><rect class="cls-6" x="47.23" width="9.45" height="9.45"/><rect class="cls-6" x="37.79" y="9.45" width="9.45" height="9.45"/><rect class="cls-6" x="28.34" y="9.45" width="9.45" height="9.45"/><rect class="cls-6" x="18.89" y="18.89" width="9.45" height="9.45"/><rect class="cls-6" x="9.45" y="28.34" width="9.45" height="9.45"/><rect class="cls-6" x="9.45" y="37.79" width="9.45" height="9.45"/><rect class="cls-6" y="47.23" width="9.45" height="9.45"/><rect class="cls-6" y="56.68" width="9.45" height="9.45"/><rect class="cls-6" y="66.13" width="9.45" height="9.45"/><rect class="cls-6" y="75.57" width="9.45" height="9.45"/><rect class="cls-6" y="85.02" width="9.45" height="9.45"/><rect class="cls-6" x="9.45" y="94.47" width="9.45" height="9.45"/><rect class="cls-6" x="9.45" y="103.91" width="9.45" height="9.45"/><rect class="cls-6" x="18.89" y="113.36" width="9.45" height="9.45"/><rect class="cls-6" x="28.34" y="122.81" width="9.45" height="9.45"/><rect class="cls-6" x="37.79" y="122.81" width="9.45" height="9.45"/><rect class="cls-6" x="47.23" y="132.26" width="9.45" height="9.45"/><rect class="cls-6" x="56.68" y="132.26" width="9.45" height="9.45"/><rect class="cls-6" x="66.13" y="132.26" width="9.45" height="9.45"/><rect class="cls-6" x="75.57" y="132.26" width="9.45" height="9.45"/><rect class="cls-6" x="85.02" y="132.26" width="9.45" height="9.45"/><rect class="cls-6" x="94.47" y="122.81" width="9.45" height="9.45"/><rect class="cls-6" x="103.91" y="122.81" width="9.45" height="9.45"/><rect class="cls-6" x="113.36" y="113.36" width="9.45" height="9.45"/><rect class="cls-6" x="122.81" y="103.91" width="9.45" height="9.45"/><rect class="cls-6" x="122.81" y="94.47" width="9.45" height="9.45"/><rect class="cls-6" x="132.26" y="85.02" width="9.45" height="9.45"/><rect class="cls-6" x="132.26" y="75.57" width="9.45" height="9.45"/><rect class="cls-6" x="132.26" y="66.13" width="9.45" height="9.45"/><rect class="cls-6" x="132.26" y="56.68" width="9.45" height="9.45"/><rect class="cls-6" x="132.26" y="47.23" width="9.45" height="9.45"/><rect class="cls-6" x="122.81" y="37.79" width="9.45" height="9.45"/><rect class="cls-6" x="122.81" y="28.34" width="9.45" height="9.45"/><rect class="cls-6" x="113.36" y="18.89" width="9.45" height="9.45"/><rect class="cls-6" x="103.91" y="9.45" width="9.45" height="9.45"/><rect class="cls-6" x="94.47" y="9.45" width="9.45" height="9.45"/><rect class="cls-6" x="56.68" width="9.45" height="9.45"/><rect class="cls-6" x="66.13" width="9.45" height="9.45"/><rect class="cls-6" x="75.57" width="9.45" height="9.45"/><rect class="cls-6" x="85.02" width="9.45" height="9.45"/></g></svg>