<?xml version="1.0" encoding="UTF-8"?><svg id="Layer_2" xmlns="http://www.w3.org/2000/svg" viewBox="0 0 179.43 179.49"><defs><style>.cls-1{fill:#f1ea36;}.cls-2{fill:#bdbdbd;}.cls-3{fill:#bda33f;}.cls-4{fill:#171717;}.cls-5{fill:#7d78b8;}</style></defs><g id="Jirachi"><rect class="cls-4" x="47.23" width="9.45" height="9.45"/><rect class="cls-4" x="56.68" width="9.45" height="9.45"/><rect class="cls-4" x="37.79" y="9.45" width="9.45" height="9.45"/><rect class="cls-4" x="37.79" y="18.89" width="9.45" height="9.45"/><rect class="cls-4" x="37.79" y="28.34" width="9.45" height="9.45"/><rect class="cls-4" x="37.79" y="37.79" width="9.45" height="9.45"/><rect class="cls-4" x="56.68" y="9.45" width="9.45" height="9.45"/><rect class="cls-4" x="56.68" y="18.89" width="9.45" height="9.45"/><rect class="cls-4" x="56.68" y="28.34" width="9.45" height="9.45"/><rect class="cls-4" x="56.68" y="37.79" width="9.45" height="9.45"/><rect class="cls-4" x="47.23" y="37.79" width="9.45" height="9.45"/><rect class="cls-4" x="66.13" width="9.45" height="9.45"/><rect class="cls-4" x="75.57" width="9.45" height="9.45"/><rect class="cls-4" x="85.02" y="9.45" width="9.45" height="9.45"/><rect class="cls-4" x="94.47" y="9.45" width="9.45" height="9.45"/><rect class="cls-4" x="103.91" y="18.89" width="9.45" height="9.45"/><rect class="cls-4" x="113.36" y="28.34" width="9.45" height="9.45"/><rect class="cls-4" x="113.36" y="37.79" width="9.45" height="9.45"/><rect class="cls-4" x="122.81" y="37.79" width="9.45" height="9.45"/><rect class="cls-4" x="132.26" y="47.23" width="9.45" height="9.45"/><rect class="cls-4" x="141.7" y="47.23" width="9.45" height="9.45"/><rect class="cls-4" x="151.05" y="56.68" width="9.45" height="9.45"/><rect class="cls-4" x="151.05" y="66.13" width="9.45" height="9.45"/><rect class="cls-4" x="160.5" y="75.57" width="9.45" height="9.45"/><rect class="cls-4" x="151.05" y="85.02" width="9.45" height="9.45"/><rect class="cls-4" x="151.05" y="94.47" width="9.45" height="9.45"/><rect class="cls-4" x="169.95" y="85.02" width="9.45" height="9.45"/><rect class="cls-4" x="169.95" y="94.47" width="9.45" height="9.45"/><rect class="cls-4" x="151.05" y="103.91" width="9.45" height="9.45"/><rect class="cls-4" x="151.05" y="113.36" width="9.45" height="9.45"/><rect class="cls-4" x="160.5" y="113.36" width="9.45" height="9.45"/><rect class="cls-4" x="169.95" y="103.91" width="9.45" height="9.45"/><rect class="cls-4" x="169.95" y="113.36" width="9.45" height="9.45"/><rect class="cls-4" x="18.89" y="28.34" width="9.45" height="9.45"/><rect class="cls-4" x="28.34" y="28.34" width="9.45" height="9.45"/><rect class="cls-4" x="9.45" y="37.79" width="9.45" height="9.45"/><rect class="cls-4" x="9.45" y="47.23" width="9.45" height="9.45"/><rect class="cls-4" y="56.68" width="9.45" height="9.45"/><rect class="cls-4" y="66.13" width="9.45" height="9.45"/><rect class="cls-4" x="18.89" y="56.68" width="9.45" height="9.45"/><rect class="cls-4" x="18.89" y="66.13" width="9.45" height="9.45"/><rect class="cls-4" y="75.57" width="9.45" height="9.45"/><rect class="cls-4" y="85.02" width="9.45" height="9.45"/><rect class="cls-4" x="9.45" y="85.02" width="9.45" height="9.45"/><rect class="cls-4" x="18.89" y="75.57" width="9.45" height="9.45"/><rect class="cls-4" x="28.26" y="75.64" width="9.45" height="9.45"/><rect class="cls-4" x="18.89" y="85.02" width="9.45" height="9.45"/><rect class="cls-4" x="28.36" y="94.47" width="9.45" height="9.45"/><rect class="cls-4" x="37.72" y="94.47" width="9.45" height="9.45"/><rect class="cls-4" x="37.72" y="85.02" width="9.45" height="9.45"/><rect class="cls-4" x="47.17" y="85.02" width="9.45" height="9.45"/><rect class="cls-4" x="47.17" y="75.57" width="9.45" height="9.45"/><rect class="cls-4" x="47.17" y="103.91" width="9.45" height="9.45"/><rect class="cls-4" x="37.72" y="113.36" width="9.45" height="9.45"/><rect class="cls-4" x="47.17" y="122.81" width="9.45" height="9.45"/><rect class="cls-4" x="56.62" y="113.36" width="9.45" height="9.45"/><rect class="cls-4" x="56.62" y="122.81" width="9.45" height="9.45"/><rect class="cls-4" x="37.72" y="122.81" width="9.45" height="9.45"/><rect class="cls-4" x="47.23" y="132.26" width="9.45" height="9.45"/><rect class="cls-4" x="56.62" y="141.7" width="9.45" height="9.45"/><rect class="cls-4" x="47.23" y="151.15" width="9.45" height="9.45"/><rect class="cls-4" x="37.79" y="151.15" width="9.45" height="9.45"/><rect class="cls-4" x="28.4" y="141.7" width="9.45" height="9.45"/><rect class="cls-4" x="18.96" y="132.26" width="9.45" height="9.45"/><rect class="cls-4" x="28.4" y="122.81" width="9.45" height="9.45"/><rect class="cls-4" x="66.06" y="132.26" width="9.45" height="9.45"/><rect class="cls-4" x="66.06" y="141.7" width="9.45" height="9.45"/><rect class="cls-4" x="75.51" y="141.7" width="9.45" height="9.45"/><rect class="cls-4" x="84.96" y="141.7" width="9.45" height="9.45"/><rect class="cls-4" x="66.06" y="113.36" width="9.45" height="9.45"/><rect class="cls-4" x="75.51" y="113.36" width="9.45" height="9.45"/><rect class="cls-4" x="84.96" y="113.36" width="9.45" height="9.45"/><rect class="cls-4" x="132.16" y="94.47" width="9.45" height="9.45"/><rect class="cls-4" x="141.6" y="94.47" width="9.45" height="9.45"/><rect class="cls-4" x="113.25" y="122.81" width="9.45" height="9.45"/><rect class="cls-4" x="122.69" y="122.81" width="9.45" height="9.45"/><rect class="cls-4" x="132.14" y="122.81" width="9.45" height="9.45"/><rect class="cls-4" x="141.57" y="132.26" width="9.45" height="9.45"/><rect class="cls-4" x="151.09" y="141.7" width="9.45" height="9.45"/><rect class="cls-4" x="160.53" y="141.7" width="9.45" height="9.45"/><rect class="cls-4" x="169.98" y="151.15" width="9.45" height="9.45"/><rect class="cls-4" x="151.09" y="160.6" width="9.45" height="9.45"/><rect class="cls-4" x="160.53" y="160.6" width="9.45" height="9.45"/><rect class="cls-4" x="132.19" y="170.04" width="9.45" height="9.45"/><rect class="cls-4" x="141.64" y="170.04" width="9.45" height="9.45"/><rect class="cls-4" x="122.74" y="160.6" width="9.45" height="9.45"/><rect class="cls-4" x="122.74" y="151.15" width="9.45" height="9.45"/><rect class="cls-4" x="103.85" y="141.7" width="9.45" height="9.45"/><rect class="cls-4" x="113.3" y="141.7" width="9.45" height="9.45"/><rect class="cls-4" x="94.4" y="151.15" width="9.45" height="9.45"/><rect class="cls-5" x="47.23" y="9.45" width="9.45" height="9.45"/><rect class="cls-5" x="47.23" y="18.89" width="9.45" height="9.45"/><rect class="cls-5" x="47.23" y="28.34" width="9.45" height="9.45"/><rect class="cls-5" x="9.45" y="56.68" width="9.45" height="9.45"/><rect class="cls-5" x="9.45" y="66.13" width="9.45" height="9.45"/><rect class="cls-5" x="9.45" y="75.57" width="9.45" height="9.45"/><rect class="cls-5" x="160.5" y="85.02" width="9.45" height="9.45"/><rect class="cls-5" x="160.5" y="94.47" width="9.45" height="9.45"/><rect class="cls-5" x="160.5" y="103.91" width="9.45" height="9.45"/><rect class="cls-2" x="47.17" y="94.47" width="9.45" height="9.45"/><rect class="cls-2" x="66.06" y="85.02" width="9.45" height="9.45"/><rect class="cls-2" x="66.06" y="75.57" width="9.45" height="9.45"/><rect class="cls-2" x="56.62" y="85.02" width="9.45" height="9.45"/><rect class="cls-1" x="37.72" y="66.13" width="9.45" height="9.45"/><rect class="cls-1" x="37.72" y="75.57" width="9.45" height="9.45"/><rect class="cls-2" x="56.62" y="75.57" width="9.45" height="9.45"/><rect class="cls-2" x="84.96" y="85.02" width="9.45" height="9.45"/><rect class="cls-3" x="84.96" y="75.57" width="9.45" height="9.45"/><rect class="cls-4" x="75.51" y="85.02" width="9.45" height="9.45"/><rect class="cls-2" x="75.51" y="75.57" width="9.45" height="9.45"/><rect class="cls-2" x="66.06" y="103.91" width="9.45" height="9.45"/><rect class="cls-2" x="66.06" y="94.47" width="9.45" height="9.45"/><rect class="cls-2" x="56.62" y="103.91" width="9.45" height="9.45"/><rect class="cls-2" x="56.62" y="94.47" width="9.45" height="9.45"/><rect class="cls-2" x="84.96" y="103.91" width="9.45" height="9.45"/><rect class="cls-2" x="84.96" y="94.47" width="9.45" height="9.45"/><rect class="cls-2" x="75.51" y="103.91" width="9.45" height="9.45"/><rect class="cls-4" x="75.51" y="94.47" width="9.45" height="9.45"/><rect class="cls-3" x="47.19" y="66.13" width="9.45" height="9.45"/><rect class="cls-1" x="56.6" y="66.13" width="9.45" height="9.45"/><rect class="cls-3" x="37.72" y="56.68" width="9.45" height="9.45"/><rect class="cls-1" x="47.18" y="56.68" width="9.45" height="9.45"/><rect class="cls-1" x="56.59" y="56.68" width="9.45" height="9.45"/><rect class="cls-1" x="18.92" y="47.23" width="9.45" height="9.45"/><rect class="cls-1" x="28.33" y="47.23" width="9.45" height="9.45"/><rect class="cls-3" x="37.8" y="47.23" width="9.45" height="9.45"/><rect class="cls-1" x="47.23" y="47.23" width="9.45" height="9.45"/><rect class="cls-3" x="56.59" y="66.13" width="9.45" height="9.45"/><rect class="cls-1" x="18.93" y="37.79" width="9.45" height="9.45"/><rect class="cls-1" x="28.35" y="37.79" width="9.45" height="9.45"/><rect class="cls-1" x="56.68" y="47.23" width="9.45" height="9.45"/><rect class="cls-1" x="66.12" y="47.23" width="9.45" height="9.45"/><rect class="cls-1" x="75.59" y="47.23" width="9.45" height="9.45"/><rect class="cls-1" x="85.01" y="47.23" width="9.45" height="9.45"/><rect class="cls-3" x="94.47" y="47.23" width="9.45" height="9.45"/><rect class="cls-4" x="103.9" y="47.23" width="9.45" height="9.45"/><rect class="cls-1" x="113.36" y="47.23" width="9.45" height="9.45"/><rect class="cls-1" x="122.8" y="47.23" width="9.45" height="9.45"/><rect class="cls-3" x="28.36" y="85.02" width="9.45" height="9.45"/><rect class="cls-3" x="28.36" y="66.13" width="9.45" height="9.45"/><rect class="cls-1" x="28.36" y="56.68" width="9.45" height="9.45"/><rect class="cls-1" x="75.59" y="37.79" width="9.45" height="9.45"/><rect class="cls-1" x="66.14" y="37.79" width="9.45" height="9.45"/><rect class="cls-1" x="85" y="37.79" width="9.45" height="9.45"/><rect class="cls-3" x="94.47" y="37.79" width="9.45" height="9.45"/><rect class="cls-3" x="103.9" y="37.79" width="9.45" height="9.45"/><rect class="cls-1" x="75.57" y="28.34" width="9.45" height="9.45"/><rect class="cls-1" x="66.13" y="28.34" width="9.45" height="9.45"/><rect class="cls-3" x="84.99" y="28.34" width="9.45" height="9.45"/><rect class="cls-3" x="94.45" y="28.34" width="9.45" height="9.45"/><rect class="cls-3" x="103.88" y="28.34" width="9.45" height="9.45"/><rect class="cls-1" x="75.56" y="18.89" width="9.45" height="9.45"/><rect class="cls-1" x="66.12" y="18.89" width="9.45" height="9.45"/><rect class="cls-3" x="84.98" y="18.89" width="9.45" height="9.45"/><rect class="cls-3" x="94.44" y="18.89" width="9.45" height="9.45"/><rect class="cls-1" x="75.59" y="9.45" width="9.45" height="9.45"/><rect class="cls-1" x="66.14" y="9.45" width="9.45" height="9.45"/><rect class="cls-1" x="66.04" y="56.68" width="9.45" height="9.45"/><rect class="cls-1" x="75.51" y="56.68" width="9.45" height="9.45"/><rect class="cls-1" x="84.92" y="56.68" width="9.45" height="9.45"/><rect class="cls-3" x="94.38" y="56.68" width="9.45" height="9.45"/><rect class="cls-1" x="103.82" y="56.68" width="9.45" height="9.45"/><rect class="cls-1" x="113.27" y="56.68" width="9.45" height="9.45"/><rect class="cls-1" x="122.71" y="56.68" width="9.45" height="9.45"/><rect class="cls-3" x="66.05" y="66.13" width="9.45" height="9.45"/><rect class="cls-1" x="75.51" y="66.13" width="9.45" height="9.45"/><rect class="cls-1" x="84.93" y="66.13" width="9.45" height="9.45"/><rect class="cls-1" x="94.39" y="66.13" width="9.45" height="9.45"/><rect class="cls-1" x="103.83" y="66.13" width="9.45" height="9.45"/><rect class="cls-1" x="113.28" y="66.13" width="9.45" height="9.45"/><rect class="cls-1" x="122.72" y="66.13" width="9.45" height="9.45"/><rect class="cls-1" x="132.16" y="56.68" width="9.45" height="9.45"/><rect class="cls-3" x="141.6" y="56.68" width="9.45" height="9.45"/><rect class="cls-1" x="132.17" y="66.13" width="9.45" height="9.45"/><rect class="cls-1" x="141.61" y="66.13" width="9.45" height="9.45"/><rect class="cls-3" x="103.82" y="85.02" width="9.45" height="9.45"/><rect class="cls-1" x="103.82" y="75.57" width="9.45" height="9.45"/><rect class="cls-1" x="94.37" y="85.02" width="9.45" height="9.45"/><rect class="cls-1" x="94.37" y="75.57" width="9.45" height="9.45"/><rect class="cls-1" x="122.71" y="85.02" width="9.45" height="9.45"/><rect class="cls-1" x="122.71" y="75.57" width="9.45" height="9.45"/><rect class="cls-1" x="113.26" y="85.02" width="9.45" height="9.45"/><rect class="cls-1" x="113.26" y="75.57" width="9.45" height="9.45"/><rect class="cls-4" x="103.82" y="103.91" width="9.45" height="9.45"/><rect class="cls-4" x="103.82" y="94.47" width="9.45" height="9.45"/><rect class="cls-4" x="94.37" y="103.91" width="9.45" height="9.45"/><rect class="cls-1" x="94.37" y="94.47" width="9.45" height="9.45"/><rect class="cls-4" x="122.71" y="103.91" width="9.45" height="9.45"/><rect class="cls-3" x="122.71" y="94.47" width="9.45" height="9.45"/><rect class="cls-4" x="113.26" y="103.91" width="9.45" height="9.45"/><rect class="cls-1" x="113.26" y="94.47" width="9.45" height="9.45"/><rect class="cls-1" x="132.16" y="75.57" width="9.45" height="9.45"/><rect class="cls-1" x="141.6" y="75.57" width="9.45" height="9.45"/><rect class="cls-1" x="151.06" y="75.57" width="9.45" height="9.45"/><rect class="cls-1" x="132.15" y="85.02" width="9.45" height="9.45"/><rect class="cls-3" x="141.6" y="85.02" width="9.45" height="9.45"/><rect class="cls-4" x="103.82" y="113.36" width="9.45" height="9.45"/><rect class="cls-1" x="66.06" y="122.81" width="9.45" height="9.45"/><rect class="cls-1" x="75.54" y="122.81" width="9.45" height="9.45"/><rect class="cls-2" x="84.96" y="122.81" width="9.45" height="9.45"/><rect class="cls-2" x="84.96" y="132.26" width="9.45" height="9.45"/><rect class="cls-2" x="75.51" y="132.26" width="9.45" height="9.45"/><rect class="cls-2" x="94.4" y="122.81" width="9.45" height="9.45"/><rect class="cls-2" x="94.4" y="113.36" width="9.45" height="9.45"/><rect class="cls-2" x="94.4" y="141.7" width="9.45" height="9.45"/><rect class="cls-2" x="103.82" y="122.81" width="9.45" height="9.45"/><rect class="cls-4" x="103.82" y="132.26" width="9.45" height="9.45"/><rect class="cls-4" x="94.37" y="132.26" width="9.45" height="9.45"/><rect class="cls-3" x="113.28" y="132.26" width="9.45" height="9.45"/><rect class="cls-1" x="132.14" y="132.26" width="9.45" height="9.45"/><rect class="cls-1" x="122.69" y="132.26" width="9.45" height="9.45"/><rect class="cls-2" x="56.62" y="132.26" width="9.45" height="9.45"/><rect class="cls-1" x="37.72" y="141.7" width="9.45" height="9.45"/><rect class="cls-1" x="47.17" y="141.7" width="9.45" height="9.45"/><rect class="cls-1" x="28.4" y="132.26" width="9.45" height="9.45"/><rect class="cls-1" x="37.85" y="132.26" width="9.45" height="9.45"/><rect class="cls-1" x="122.76" y="141.7" width="9.45" height="9.45"/><rect class="cls-1" x="141.62" y="141.7" width="9.45" height="9.45"/><rect class="cls-1" x="132.17" y="141.7" width="9.45" height="9.45"/><rect class="cls-1" x="132.21" y="151.15" width="9.45" height="9.45"/><rect class="cls-1" x="151.07" y="151.15" width="9.45" height="9.45"/><rect class="cls-1" x="141.62" y="151.15" width="9.45" height="9.45"/><rect class="cls-1" x="160.55" y="151.15" width="9.45" height="9.45"/><rect class="cls-1" x="132.23" y="160.6" width="9.45" height="9.45"/><rect class="cls-1" x="141.64" y="160.6" width="9.45" height="9.45"/><rect class="cls-2" x="47.17" y="113.36" width="9.45" height="9.45"/></g></svg>