<?xml version="1.0" encoding="UTF-8"?>
<svg id="Logo" xmlns="http://www.w3.org/2000/svg" viewBox="0 0 330.89 122.81">
  <defs>
    <style>
      .cls-1 {
        fill: #fecd0a;
      }

      .cls-2 {
        fill: #3367b0;
      }
    </style>
  </defs>
  <path id="blue-logo" class="cls-2" d="M122.89,28.34h-9.45v-9.45h9.45v9.45Zm18.89-18.89h-9.45v9.45h9.45V9.45Zm-9.45,0h-9.45v9.45h9.45V9.45Zm18.89,0h-9.45v9.45h9.45V9.45ZM160.68,0h-9.45V9.45h9.45V0Zm9.45,0h-9.45V9.45h9.45V0Zm9.45,0h-9.45V9.45h9.45V0Zm0,18.89h-9.45v9.45h9.45v-9.45Zm9.45,9.45h-9.45v9.45h9.45v-9.45Zm-9.45,9.45h-9.45v9.45h9.45v-9.45Zm-9.45-9.45h-9.45v9.45h9.45v-9.45Zm0,9.45h-9.45v9.45h9.45v-9.45ZM189.02,0h-9.45V9.45h9.45V0Zm9.45,9.45h-9.45v9.45h9.45V9.45Zm9.45,0h-9.45v9.45h9.45V9.45Zm9.45,9.45h-9.45v9.45h9.45v-9.45Zm0,9.45h-9.45v9.45h9.45v-9.45Zm0,9.45h-9.45v9.45h9.45v-9.45Zm-9.45,9.45h-9.45v9.45h9.45v-9.45Zm-9.45,9.45h-9.45v9.45h9.45v-9.45Zm0,9.45h-9.45v9.45h9.45v-9.45ZM122.89,28.34h-9.45v9.45h9.45v-9.45Zm9.45,0h-9.45v9.45h9.45v-9.45Zm9.45,9.45h-9.45v9.45h9.45v-9.45Zm0,9.45h-9.45v9.45h9.45v-9.45Zm9.45,9.45h-9.45v9.45h9.45v-9.45Zm0,9.45h-9.45v9.45h9.45v-9.45Zm9.45,9.45h-9.45v9.45h9.45v-9.45Zm0,9.45h-9.45v9.45h9.45v-9.45Zm0,9.45h-9.45v9.45h9.45v-9.45Zm0,9.45h-9.45v9.45h9.45v-9.45Zm9.45,9.45h-9.45v9.45h9.45v-9.45Zm9.45,0h-9.45v9.45h9.45v-9.45Zm9.45-18.89h-9.45v9.45h9.45v-9.45Zm0,9.45h-9.45v9.45h9.45v-9.45Zm0-28.34h-9.45v9.45h9.45v-9.45Zm0,9.45h-9.45v9.45h9.45v-9.45ZM9.45,18.89H0v9.45H9.45v-9.45ZM28.34,9.45h-9.45v9.45h9.45V9.45Zm-9.45,0H9.45v9.45h9.45V9.45Zm18.89,0h-9.45v9.45h9.45V9.45ZM47.23,0h-9.45V9.45h9.45V0Zm9.45,0h-9.45V9.45h9.45V0Zm9.45,0h-9.45V9.45h9.45V0Zm0,18.89h-9.45v9.45h9.45v-9.45Zm9.45,9.45h-9.45v9.45h9.45v-9.45Zm-9.45,9.45h-9.45v9.45h9.45v-9.45Zm-9.45-9.45h-9.45v9.45h9.45v-9.45Zm0,9.45h-9.45v9.45h9.45v-9.45ZM75.57,0h-9.45V9.45h9.45V0Zm9.45,9.45h-9.45v9.45h9.45V9.45Zm9.45,0h-9.45v9.45h9.45V9.45Zm9.45,9.45h-9.45v9.45h9.45v-9.45Zm0,9.45h-9.45v9.45h9.45v-9.45Zm0,9.45h-9.45v9.45h9.45v-9.45Zm-9.45,9.45h-9.45v9.45h9.45v-9.45Zm-9.45,9.45h-9.45v9.45h9.45v-9.45Zm0,9.45h-9.45v9.45h9.45v-9.45ZM9.45,28.34H0v9.45H9.45v-9.45Zm9.45,0H9.45v9.45h9.45v-9.45Zm9.45,9.45h-9.45v9.45h9.45v-9.45Zm0,9.45h-9.45v9.45h9.45v-9.45Zm9.45,9.45h-9.45v9.45h9.45v-9.45Zm0,9.45h-9.45v9.45h9.45v-9.45Zm9.45,9.45h-9.45v9.45h9.45v-9.45Zm0,9.45h-9.45v9.45h9.45v-9.45Zm0,9.45h-9.45v9.45h9.45v-9.45Zm0,9.45h-9.45v9.45h9.45v-9.45Zm9.45,9.45h-9.45v9.45h9.45v-9.45Zm9.45,0h-9.45v9.45h9.45v-9.45Zm9.45-18.89h-9.45v9.45h9.45v-9.45Zm0,9.45h-9.45v9.45h9.45v-9.45Zm0-28.34h-9.45v9.45h9.45v-9.45Zm0,9.45h-9.45v9.45h9.45v-9.45Zm170.3,28.34h-9.45v9.45h9.45v-9.45Zm-9.45-9.45h-9.45v9.45h9.45v-9.45Zm0,9.45h-9.45v9.45h9.45v-9.45Zm0-18.89h-9.45v9.45h9.45v-9.45Zm0-9.45h-9.45v9.45h9.45v-9.45Zm9.45-9.45h-9.45v9.45h9.45v-9.45Zm0-9.45h-9.45v9.45h9.45v-9.45Zm0-9.45h-9.45v9.45h9.45v-9.45Zm9.45-9.45h-9.45v9.45h9.45v-9.45Zm0-9.45h-9.45v9.45h9.45v-9.45Zm0-9.45h-9.45v9.45h9.45v-9.45Zm9.45-9.45h-9.45v9.45h9.45v-9.45Zm0-9.45h-9.45v9.45h9.45V9.45Zm-9.45,103.91h-9.45v9.45h9.45v-9.45Zm9.45,0h-9.45v9.45h9.45v-9.45Zm0-9.45h-9.45v9.45h9.45v-9.45Zm0-9.45h-9.45v9.45h9.45v-9.45Zm9.45-9.45h-9.45v9.45h9.45v-9.45Zm0-9.45h-9.45v9.45h9.45v-9.45Zm9.45-9.45h-9.45v9.45h9.45v-9.45Zm0-18.89h-9.45v9.45h9.45v-9.45Zm9.45-9.45h-9.45v9.45h9.45v-9.45Zm-18.89,0h-9.45v9.45h9.45v-9.45Zm9.45-9.45h-9.45v9.45h9.45v-9.45Zm-9.45,18.89h-9.45v9.45h9.45v-9.45Zm18.89,28.34h-9.45v9.45h9.45v-9.45Zm0,9.45h-9.45v9.45h9.45v-9.45Zm9.45,9.45h-9.45v9.45h9.45v-9.45Zm0,9.45h-9.45v9.45h9.45v-9.45Zm0,9.45h-9.45v9.45h9.45v-9.45Zm9.45,0h-9.45v9.45h9.45v-9.45Zm9.45,0h-9.45v9.45h9.45v-9.45Zm9.45,0h-9.45v9.45h9.45v-9.45Zm0-9.45h-9.45v9.45h9.45v-9.45Zm0-9.45h-9.45v9.45h9.45v-9.45Zm0-9.45h-9.45v9.45h9.45v-9.45Zm-9.45-9.45h-9.45v9.45h9.45v-9.45Zm0-9.45h-9.45v9.45h9.45v-9.45Zm0-9.45h-9.45v9.45h9.45v-9.45Zm-9.45-9.45h-9.45v9.45h9.45v-9.45Zm0-9.45h-9.45v9.45h9.45v-9.45Zm0-9.45h-9.45v9.45h9.45v-9.45Zm-9.45-9.45h-9.45v9.45h9.45v-9.45Zm0-9.45h-9.45v9.45h9.45V9.45Zm-9.45-9.45h-9.45V9.45h9.45V0Zm-9.45,0h-9.45V9.45h9.45V0Zm-9.45,0h-9.45V9.45h9.45V0Z"/>
  <path id="yellow-logo" class="cls-1" d="M160.68,75.57h-9.45v-9.45h9.45v9.45Zm0-18.89h-9.45v9.45h9.45v-9.45Zm9.45,0h-9.45v9.45h9.45v-9.45Zm0,9.45h-9.45v9.45h9.45v-9.45Zm0,9.45h-9.45v9.45h9.45v-9.45Zm0,9.45h-9.45v9.45h9.45v-9.45Zm0,9.45h-9.45v9.45h9.45v-9.45Zm0,9.45h-9.45v9.45h9.45v-9.45Zm9.45-47.23h-9.45v9.45h9.45v-9.45Zm0,9.45h-9.45v9.45h9.45v-9.45Zm0,9.45h-9.45v9.45h9.45v-9.45Zm0,9.45h-9.45v9.45h9.45v-9.45Zm0,9.45h-9.45v9.45h9.45v-9.45Zm0,9.45h-9.45v9.45h9.45v-9.45Zm9.45-47.23h-9.45v9.45h9.45v-9.45Zm0,9.45h-9.45v9.45h9.45v-9.45Zm-37.79-28.34h-9.45v9.45h9.45v-9.45Zm0,9.45h-9.45v9.45h9.45v-9.45Zm9.45-9.45h-9.45v9.45h9.45v-9.45Zm0,9.45h-9.45v9.45h9.45v-9.45Zm0-28.34h-9.45v9.45h9.45v-9.45Zm9.45,0h-9.45v9.45h9.45v-9.45Zm-9.45,9.45h-9.45v9.45h9.45v-9.45Zm-9.45-9.45h-9.45v9.45h9.45v-9.45Zm0,9.45h-9.45v9.45h9.45v-9.45Zm-9.45-9.45h-9.45v9.45h9.45v-9.45Zm-9.45,0h-9.45v9.45h9.45v-9.45Zm9.45,9.45h-9.45v9.45h9.45v-9.45Zm28.34,18.89h-9.45v9.45h9.45v-9.45Zm9.45,0h-9.45v9.45h9.45v-9.45Zm9.45,0h-9.45v9.45h9.45v-9.45Zm0-9.45h-9.45v9.45h9.45v-9.45Zm9.45,9.45h-9.45v9.45h9.45v-9.45Zm0-9.45h-9.45v9.45h9.45v-9.45Zm9.45,0h-9.45v9.45h9.45v-9.45Zm0-9.45h-9.45v9.45h9.45v-9.45Zm-9.45,0h-9.45v9.45h9.45v-9.45Zm0-9.45h-9.45v9.45h9.45v-9.45Zm-9.45,0h-9.45v9.45h9.45v-9.45Zm-28.34-9.45h-9.45v9.45h9.45V9.45Zm9.45,0h-9.45v9.45h9.45V9.45Zm9.45,0h-9.45v9.45h9.45V9.45Zm9.45,0h-9.45v9.45h9.45V9.45Zm18.89,9.45h-9.45v9.45h9.45v-9.45ZM47.23,66.13h-9.45v9.45h9.45v-9.45Zm0-9.45h-9.45v9.45h9.45v-9.45Zm9.45,0h-9.45v9.45h9.45v-9.45Zm0,9.45h-9.45v9.45h9.45v-9.45Zm0,9.45h-9.45v9.45h9.45v-9.45Zm0,9.45h-9.45v9.45h9.45v-9.45Zm0,9.45h-9.45v9.45h9.45v-9.45Zm0,9.45h-9.45v9.45h9.45v-9.45Zm9.45-47.23h-9.45v9.45h9.45v-9.45Zm0,9.45h-9.45v9.45h9.45v-9.45Zm0,9.45h-9.45v9.45h9.45v-9.45Zm0,9.45h-9.45v9.45h9.45v-9.45Zm0,9.45h-9.45v9.45h9.45v-9.45Zm0,9.45h-9.45v9.45h9.45v-9.45Zm9.45-47.23h-9.45v9.45h9.45v-9.45Zm0,9.45h-9.45v9.45h9.45v-9.45Zm-37.79-28.34h-9.45v9.45h9.45v-9.45Zm0,9.45h-9.45v9.45h9.45v-9.45Zm9.45-9.45h-9.45v9.45h9.45v-9.45Zm0,9.45h-9.45v9.45h9.45v-9.45Zm0-28.34h-9.45v9.45h9.45v-9.45Zm9.45,0h-9.45v9.45h9.45v-9.45Zm-9.45,9.45h-9.45v9.45h9.45v-9.45Zm-9.45-9.45h-9.45v9.45h9.45v-9.45Zm0,9.45h-9.45v9.45h9.45v-9.45Zm-9.45-9.45h-9.45v9.45h9.45v-9.45Zm-9.45,0H9.45v9.45h9.45v-9.45Zm9.45,9.45h-9.45v9.45h9.45v-9.45Zm28.34,18.89h-9.45v9.45h9.45v-9.45Zm9.45,0h-9.45v9.45h9.45v-9.45Zm9.45,0h-9.45v9.45h9.45v-9.45Zm0-9.45h-9.45v9.45h9.45v-9.45Zm9.45,9.45h-9.45v9.45h9.45v-9.45Zm0-9.45h-9.45v9.45h9.45v-9.45Zm9.45,0h-9.45v9.45h9.45v-9.45Zm0-9.45h-9.45v9.45h9.45v-9.45Zm-9.45,0h-9.45v9.45h9.45v-9.45Zm0-9.45h-9.45v9.45h9.45v-9.45Zm-9.45,0h-9.45v9.45h9.45v-9.45Zm-28.34-9.45h-9.45v9.45h9.45V9.45Zm9.45,0h-9.45v9.45h9.45V9.45Zm9.45,0h-9.45v9.45h9.45V9.45Zm9.45,0h-9.45v9.45h9.45V9.45Zm18.89,9.45h-9.45v9.45h9.45v-9.45Zm179.74-9.45h-9.45v9.45h9.45V9.45Zm9.45,0h-9.45v9.45h9.45V9.45Zm9.45,0h-9.45v9.45h9.45V9.45Zm0,9.45h-9.45v9.45h9.45v-9.45Zm0,9.45h-9.45v9.45h9.45v-9.45Zm9.45,0h-9.45v9.45h9.45v-9.45Zm0,9.45h-9.45v9.45h9.45v-9.45Zm0,9.45h-9.45v9.45h9.45v-9.45Zm-18.89-28.34h-9.45v9.45h9.45v-9.45Zm-9.45,0h-9.45v9.45h9.45v-9.45Zm0,9.45h-9.45v9.45h9.45v-9.45Zm-9.45,0h-9.45v9.45h9.45v-9.45Zm0,9.45h-9.45v9.45h9.45v-9.45Zm0,9.45h-9.45v9.45h9.45v-9.45Zm-9.45,9.45h-9.45v9.45h9.45v-9.45Zm9.45,0h-9.45v9.45h9.45v-9.45Zm9.45,0h-9.45v9.45h9.45v-9.45Zm0,9.45h-9.45v9.45h9.45v-9.45Zm-9.45,0h-9.45v9.45h9.45v-9.45Zm-9.45,0h-9.45v9.45h9.45v-9.45Zm0,9.45h-9.45v9.45h9.45v-9.45Zm9.45,0h-9.45v9.45h9.45v-9.45Zm0,9.45h-9.45v9.45h9.45v-9.45Zm-9.45,0h-9.45v9.45h9.45v-9.45Zm-9.45,0h-9.45v9.45h9.45v-9.45Zm0,9.45h-9.45v9.45h9.45v-9.45Zm9.45,0h-9.45v9.45h9.45v-9.45Zm0,9.45h-9.45v9.45h9.45v-9.45Zm-9.45,0h-9.45v9.45h9.45v-9.45Zm37.79-47.23h-9.45v9.45h9.45v-9.45Zm9.45,0h-9.45v9.45h9.45v-9.45Zm0-9.45h-9.45v9.45h9.45v-9.45Zm9.45,9.45h-9.45v9.45h9.45v-9.45Zm9.45,0h-9.45v9.45h9.45v-9.45Zm0,9.45h-9.45v9.45h9.45v-9.45Zm-9.45,0h-9.45v9.45h9.45v-9.45Zm-9.45,0h-9.45v9.45h9.45v-9.45Zm9.45,9.45h-9.45v9.45h9.45v-9.45Zm9.45,0h-9.45v9.45h9.45v-9.45Zm-9.45,9.45h-9.45v9.45h9.45v-9.45Zm9.45,0h-9.45v9.45h9.45v-9.45Zm9.45,0h-9.45v9.45h9.45v-9.45Zm0,9.45h-9.45v9.45h9.45v-9.45Zm-9.45,0h-9.45v9.45h9.45v-9.45Zm0,9.45h-9.45v9.45h9.45v-9.45Zm9.45,0h-9.45v9.45h9.45v-9.45Z"/>
</svg>