<?xml version="1.0" encoding="UTF-8"?><svg id="Layer_2" xmlns="http://www.w3.org/2000/svg" viewBox="0 0 113.36 179.49"><defs><style>.cls-1{fill:#f4f4f5;}.cls-2{fill:#9bcb4a;}.cls-3{fill:#7b9c49;}.cls-4{fill:#171717;}.cls-5{fill:#e54b28;}</style></defs><g id="Ralts"><rect class="cls-5" x="9.45" y="9.45" width="9.45" height="9.45"/><rect class="cls-5" x="18.89" y="9.45" width="9.45" height="9.45"/><rect class="cls-5" x="18.89" y="18.89" width="9.45" height="9.45"/><rect class="cls-5" x="9.45" y="18.89" width="9.45" height="9.45"/><rect class="cls-5" x="37.79" y="18.89" width="9.45" height="9.45"/><rect class="cls-5" x="28.34" y="18.89" width="9.45" height="9.45"/><rect class="cls-4" x="9.45" width="9.45" height="9.45"/><rect class="cls-4" x="18.89" width="9.45" height="9.45"/><rect class="cls-4" x="28.34" y="9.45" width="9.45" height="9.45"/><rect class="cls-4" x="37.79" y="9.45" width="9.45" height="9.45"/><rect class="cls-4" x="47.23" y="18.89" width="9.45" height="9.45"/><rect class="cls-4" x="56.68" y="18.89" width="9.45" height="9.45"/><rect class="cls-4" x="66.13" y="18.89" width="9.45" height="9.45"/><rect class="cls-4" x="75.57" y="28.34" width="9.45" height="9.45"/><rect class="cls-4" x="85.02" y="28.34" width="9.45" height="9.45"/><rect class="cls-4" x="94.47" y="37.79" width="9.45" height="9.45"/><rect class="cls-4" x="94.47" y="47.23" width="9.45" height="9.45"/><rect class="cls-4" x="103.91" y="56.68" width="9.45" height="9.45"/><rect class="cls-4" x="103.91" y="66.13" width="9.45" height="9.45"/><rect class="cls-4" x="103.91" y="75.57" width="9.45" height="9.45"/><rect class="cls-4" x="94.47" y="85.02" width="9.45" height="9.45"/><rect class="cls-4" y="9.45" width="9.45" height="9.45"/><rect class="cls-4" y="18.89" width="9.45" height="9.45"/><rect class="cls-4" x="9.45" y="28.34" width="9.45" height="9.45"/><rect class="cls-4" x="9.45" y="37.79" width="9.45" height="9.45"/><rect class="cls-4" x="18.89" y="47.23" width="9.45" height="9.45"/><rect class="cls-4" x="28.34" y="56.68" width="9.45" height="9.45"/><rect class="cls-4" y="47.23" width="9.45" height="9.45"/><rect class="cls-4" y="56.68" width="9.45" height="9.45"/><rect class="cls-4" y="66.13" width="9.45" height="9.45"/><rect class="cls-4" x="9.45" y="75.57" width="9.45" height="9.45"/><rect class="cls-4" x="9.45" y="85.02" width="9.45" height="9.45"/><rect class="cls-4" x="18.83" y="94.47" width="9.45" height="9.45"/><rect class="cls-4" x="28.28" y="103.91" width="9.45" height="9.45"/><rect class="cls-4" x="85.02" y="94.47" width="9.45" height="9.45"/><rect class="cls-4" x="75.57" y="94.47" width="9.45" height="9.45"/><rect class="cls-4" x="75.57" y="103.91" width="9.45" height="9.45"/><rect class="cls-4" x="66.13" y="94.47" width="9.45" height="9.45"/><rect class="cls-4" x="56.68" y="94.47" width="9.45" height="9.45"/><rect class="cls-4" x="47.23" y="94.47" width="9.45" height="9.45"/><rect class="cls-4" x="66.19" y="113.36" width="9.45" height="9.45"/><rect class="cls-4" x="56.74" y="113.36" width="9.45" height="9.45"/><rect class="cls-4" x="47.3" y="113.36" width="9.45" height="9.45"/><rect class="cls-4" x="37.85" y="113.36" width="9.45" height="9.45"/><rect class="cls-4" x="66.19" y="122.81" width="9.45" height="9.45"/><rect class="cls-4" x="75.64" y="132.26" width="9.45" height="9.45"/><rect class="cls-4" x="75.64" y="141.7" width="9.45" height="9.45"/><rect class="cls-4" x="85.02" y="141.7" width="9.45" height="9.45"/><rect class="cls-4" x="94.47" y="151.15" width="9.45" height="9.45"/><rect class="cls-4" x="75.61" y="160.6" width="9.45" height="9.45"/><rect class="cls-4" x="84.99" y="160.6" width="9.45" height="9.45"/><rect class="cls-4" x="56.78" y="170.04" width="9.45" height="9.45"/><rect class="cls-4" x="66.16" y="170.04" width="9.45" height="9.45"/><rect class="cls-4" x="47.33" y="170.04" width="9.45" height="9.45"/><rect class="cls-4" x="28.4" y="122.81" width="9.45" height="9.45"/><rect class="cls-4" x="28.4" y="132.26" width="9.45" height="9.45"/><rect class="cls-4" x="18.99" y="141.7" width="9.45" height="9.45"/><rect class="cls-4" x="18.99" y="151.15" width="9.45" height="9.45"/><rect class="cls-4" x="28.44" y="160.6" width="9.45" height="9.45"/><rect class="cls-4" x="37.88" y="160.6" width="9.45" height="9.45"/><rect class="cls-4" x="66.16" y="151.15" width="9.45" height="9.45"/><rect class="cls-4" x="56.7" y="141.7" width="9.45" height="9.45"/><rect class="cls-4" x="28.34" y="85.02" width="9.45" height="9.45"/><rect class="cls-1" x="28.4" y="94.47" width="9.45" height="9.45"/><rect class="cls-1" x="37.85" y="94.47" width="9.45" height="9.45"/><rect class="cls-1" x="37.85" y="103.91" width="9.45" height="9.45"/><rect class="cls-1" x="47.3" y="103.91" width="9.45" height="9.45"/><rect class="cls-1" x="56.74" y="103.91" width="9.45" height="9.45"/><rect class="cls-1" x="66.19" y="103.91" width="9.45" height="9.45"/><rect class="cls-1" x="56.7" y="122.81" width="9.45" height="9.45"/><rect class="cls-1" x="47.3" y="122.81" width="9.45" height="9.45"/><rect class="cls-1" x="37.85" y="122.81" width="9.45" height="9.45"/><rect class="cls-1" x="66.19" y="141.7" width="9.45" height="9.45"/><rect class="cls-1" x="66.19" y="132.26" width="9.45" height="9.45"/><rect class="cls-1" x="56.7" y="132.26" width="9.45" height="9.45"/><rect class="cls-1" x="47.26" y="132.26" width="9.45" height="9.45"/><rect class="cls-1" x="37.83" y="132.26" width="9.45" height="9.45"/><rect class="cls-1" x="75.64" y="151.15" width="9.45" height="9.45"/><rect class="cls-1" x="85.02" y="151.15" width="9.45" height="9.45"/><rect class="cls-1" x="56.81" y="160.6" width="9.45" height="9.45"/><rect class="cls-1" x="66.19" y="160.6" width="9.45" height="9.45"/><rect class="cls-1" x="47.39" y="160.6" width="9.45" height="9.45"/><rect class="cls-1" x="56.78" y="160.6" width="9.45" height="9.45"/><rect class="cls-1" x="56.73" y="151.13" width="9.45" height="9.45"/><rect class="cls-1" x="37.93" y="151.13" width="9.45" height="9.45"/><rect class="cls-1" x="47.31" y="151.13" width="9.45" height="9.45"/><rect class="cls-1" x="47.26" y="151.13" width="9.45" height="9.45"/><rect class="cls-1" x="28.46" y="151.13" width="9.45" height="9.45"/><rect class="cls-1" x="37.84" y="151.13" width="9.45" height="9.45"/><rect class="cls-1" x="47.24" y="141.7" width="9.45" height="9.45"/><rect class="cls-1" x="28.44" y="141.7" width="9.45" height="9.45"/><rect class="cls-1" x="37.83" y="141.7" width="9.45" height="9.45"/><rect class="cls-5" x="28.34" y="28.34" width="9.45" height="9.45"/><rect class="cls-5" x="18.89" y="28.34" width="9.45" height="9.45"/><rect class="cls-5" x="47.23" y="28.34" width="9.45" height="9.45"/><rect class="cls-5" x="37.79" y="28.34" width="9.45" height="9.45"/><rect class="cls-5" x="28.34" y="37.79" width="9.45" height="9.45"/><rect class="cls-5" x="18.89" y="37.79" width="9.45" height="9.45"/><rect class="cls-2" x="47.23" y="37.79" width="9.45" height="9.45"/><rect class="cls-5" x="37.79" y="37.79" width="9.45" height="9.45"/><rect class="cls-2" x="56.65" y="37.79" width="9.45" height="9.45"/><rect class="cls-2" x="75.54" y="37.79" width="9.45" height="9.45"/><rect class="cls-2" x="84.99" y="37.79" width="9.45" height="9.45"/><rect class="cls-2" x="66.13" y="28.34" width="9.45" height="9.45"/><rect class="cls-2" x="56.68" y="28.34" width="9.45" height="9.45"/><rect class="cls-2" x="66.1" y="37.79" width="9.45" height="9.45"/><rect class="cls-5" x="28.34" y="47.23" width="9.45" height="9.45"/><rect class="cls-2" x="47.2" y="47.23" width="9.45" height="9.45"/><rect class="cls-2" x="37.79" y="47.23" width="9.45" height="9.45"/><rect class="cls-2" x="56.65" y="47.23" width="9.45" height="9.45"/><rect class="cls-2" x="84.99" y="47.23" width="9.45" height="9.45"/><rect class="cls-2" x="75.54" y="47.23" width="9.45" height="9.45"/><rect class="cls-2" x="66.1" y="47.23" width="9.45" height="9.45"/><rect class="cls-2" x="47.2" y="56.68" width="9.45" height="9.45"/><rect class="cls-2" x="37.82" y="56.68" width="9.45" height="9.45"/><rect class="cls-2" x="56.65" y="56.68" width="9.45" height="9.45"/><rect class="cls-3" x="85.02" y="56.68" width="9.45" height="9.45"/><rect class="cls-3" x="75.54" y="56.68" width="9.45" height="9.45"/><rect class="cls-2" x="66.1" y="56.68" width="9.45" height="9.45"/><rect class="cls-2" x="94.47" y="56.68" width="9.45" height="9.45"/><rect class="cls-2" x="47.23" y="66.13" width="9.45" height="9.45"/><rect class="cls-2" x="37.79" y="66.13" width="9.45" height="9.45"/><rect class="cls-2" x="56.68" y="66.13" width="9.45" height="9.45"/><rect class="cls-2" x="85.02" y="66.13" width="9.45" height="9.45"/><rect class="cls-2" x="75.57" y="66.13" width="9.45" height="9.45"/><rect class="cls-3" x="66.13" y="66.13" width="9.45" height="9.45"/><rect class="cls-2" x="94.47" y="66.13" width="9.45" height="9.45"/><rect class="cls-2" x="47.23" y="75.57" width="9.45" height="9.45"/><rect class="cls-2" x="37.79" y="75.57" width="9.45" height="9.45"/><rect class="cls-3" x="56.68" y="75.57" width="9.45" height="9.45"/><rect class="cls-2" x="85.02" y="75.57" width="9.45" height="9.45"/><rect class="cls-2" x="75.57" y="75.57" width="9.45" height="9.45"/><rect class="cls-2" x="66.13" y="75.57" width="9.45" height="9.45"/><rect class="cls-2" x="94.47" y="75.57" width="9.45" height="9.45"/><rect class="cls-3" x="28.34" y="66.13" width="9.45" height="9.45"/><rect class="cls-3" x="28.34" y="75.57" width="9.45" height="9.45"/><rect class="cls-2" x="18.89" y="66.13" width="9.45" height="9.45"/><rect class="cls-2" x="18.89" y="75.57" width="9.45" height="9.45"/><rect class="cls-2" x="18.89" y="85.02" width="9.45" height="9.45"/><rect class="cls-2" x="18.89" y="56.68" width="9.45" height="9.45"/><rect class="cls-2" x="9.45" y="56.68" width="9.45" height="9.45"/><rect class="cls-2" x="9.45" y="66.13" width="9.45" height="9.45"/><rect class="cls-2" x="9.45" y="47.23" width="9.45" height="9.45"/><rect class="cls-2" x="47.23" y="85.02" width="9.45" height="9.45"/><rect class="cls-2" x="37.79" y="85.02" width="9.45" height="9.45"/><rect class="cls-3" x="56.68" y="85.02" width="9.45" height="9.45"/><rect class="cls-2" x="85.02" y="85.02" width="9.45" height="9.45"/><rect class="cls-2" x="75.57" y="85.02" width="9.45" height="9.45"/><rect class="cls-2" x="66.13" y="85.02" width="9.45" height="9.45"/></g></svg>