<?xml version="1.0" encoding="UTF-8"?><svg id="Layer_2" xmlns="http://www.w3.org/2000/svg" viewBox="0 0 179.49 160.6"><defs><style>.cls-1{fill:#f4f4f5;}.cls-2{fill:#f2822e;}.cls-3{fill:#fff6cd;}.cls-4{fill:#dbaed1;}.cls-5{fill:#b187bd;}.cls-6{fill:#171717;}</style></defs><g id="Shiny_Mudkip"><rect class="cls-6" x="66.13" width="9.45" height="9.45"/><rect class="cls-2" x="9.45" y="66.13" width="9.45" height="9.45"/><rect class="cls-2" x="9.45" y="85.02" width="9.45" height="9.45"/><rect class="cls-2" x="18.89" y="85.02" width="9.45" height="9.45"/><rect class="cls-2" x="18.89" y="75.57" width="9.45" height="9.45"/><rect class="cls-4" x="66.13" y="9.45" width="9.45" height="9.45"/><rect class="cls-4" x="75.57" y="9.45" width="9.45" height="9.45"/><rect class="cls-4" x="75.57" y="18.89" width="9.45" height="9.45"/><rect class="cls-4" x="56.68" y="132.26" width="9.45" height="9.45"/><rect class="cls-4" x="66.13" y="132.26" width="9.45" height="9.45"/><rect class="cls-3" x="66.13" y="122.81" width="9.45" height="9.45"/><rect class="cls-3" x="75.57" y="122.81" width="9.45" height="9.45"/><rect class="cls-3" x="85.02" y="122.81" width="9.45" height="9.45"/><rect class="cls-5" x="94.47" y="122.81" width="9.45" height="9.45"/><rect class="cls-4" x="94.47" y="132.26" width="9.45" height="9.45"/><rect class="cls-4" x="94.47" y="141.7" width="9.45" height="9.45"/><rect class="cls-4" x="103.91" y="141.7" width="9.45" height="9.45"/><rect class="cls-4" x="103.91" y="132.26" width="9.45" height="9.45"/><rect class="cls-5" x="103.91" y="122.81" width="9.45" height="9.45"/><rect class="cls-5" x="113.36" y="122.81" width="9.45" height="9.45"/><rect class="cls-4" x="56.68" y="122.81" width="9.45" height="9.45"/><rect class="cls-6" x="75.57" width="9.45" height="9.45"/><rect class="cls-6" x="85.02" y="9.45" width="9.45" height="9.45"/><rect class="cls-6" x="85.02" y="18.89" width="9.45" height="9.45"/><rect class="cls-6" x="85.02" y="28.34" width="9.45" height="9.45"/><rect class="cls-6" x="94.47" y="28.34" width="9.45" height="9.45"/><rect class="cls-6" x="103.91" y="37.79" width="9.45" height="9.45"/><rect class="cls-6" x="113.36" y="47.23" width="9.45" height="9.45"/><rect class="cls-6" x="122.81" y="56.68" width="9.45" height="9.45"/><rect class="cls-6" x="132.26" y="56.68" width="9.45" height="9.45"/><rect class="cls-6" x="141.7" y="47.23" width="9.45" height="9.45"/><rect class="cls-6" x="151.15" y="37.79" width="9.45" height="9.45"/><rect class="cls-6" x="160.6" y="37.79" width="9.45" height="9.45"/><rect class="cls-6" x="170.04" y="47.23" width="9.45" height="9.45"/><rect class="cls-6" x="170.04" y="56.68" width="9.45" height="9.45"/><rect class="cls-6" x="170.04" y="66.13" width="9.45" height="9.45"/><rect class="cls-6" x="170.04" y="75.57" width="9.45" height="9.45"/><rect class="cls-6" x="85.02" y="37.79" width="9.45" height="9.45"/><rect class="cls-6" x="85.02" y="47.23" width="9.45" height="9.45"/><rect class="cls-6" x="56.68" y="9.45" width="9.45" height="9.45"/><rect class="cls-6" x="47.23" y="18.89" width="9.45" height="9.45"/><rect class="cls-6" x="47.23" y="28.34" width="9.45" height="9.45"/><rect class="cls-6" x="37.79" y="37.79" width="9.45" height="9.45"/><rect class="cls-6" x="28.34" y="47.23" width="9.45" height="9.45"/><rect class="cls-6" x="18.89" y="56.68" width="9.45" height="9.45"/><rect class="cls-6" x="18.89" y="66.13" width="9.45" height="9.45"/><rect class="cls-6" x="9.45" y="56.68" width="9.45" height="9.45"/><rect class="cls-6" y="66.13" width="9.45" height="9.45"/><rect class="cls-6" x="9.45" y="75.57" width="9.45" height="9.45"/><rect class="cls-6" y="85.02" width="9.45" height="9.45"/><rect class="cls-6" x="9.45" y="94.47" width="9.45" height="9.45"/><rect class="cls-6" x="28.34" y="103.91" width="9.45" height="9.45"/><rect class="cls-6" x="37.79" y="103.91" width="9.45" height="9.45"/><rect class="cls-6" x="47.23" y="113.36" width="9.45" height="9.45"/><rect class="cls-6" x="47.23" y="122.81" width="9.45" height="9.45"/><rect class="cls-6" x="47.23" y="132.26" width="9.45" height="9.45"/><rect class="cls-6" x="56.68" y="113.36" width="9.45" height="9.45"/><rect class="cls-6" x="56.68" y="141.7" width="9.45" height="9.45"/><rect class="cls-6" x="66.13" y="141.7" width="9.45" height="9.45"/><rect class="cls-6" x="75.57" y="132.26" width="9.45" height="9.45"/><rect class="cls-6" x="85.02" y="132.26" width="9.45" height="9.45"/><rect class="cls-6" x="85.02" y="141.7" width="9.45" height="9.45"/><rect class="cls-6" x="94.47" y="151.15" width="9.45" height="9.45"/><rect class="cls-6" x="103.91" y="151.15" width="9.45" height="9.45"/><rect class="cls-6" x="113.36" y="141.7" width="9.45" height="9.45"/><rect class="cls-6" x="113.36" y="132.26" width="9.45" height="9.45"/><rect class="cls-6" x="122.81" y="132.26" width="9.45" height="9.45"/><rect class="cls-6" x="122.81" y="122.81" width="9.45" height="9.45"/><rect class="cls-6" x="132.26" y="132.26" width="9.45" height="9.45"/><rect class="cls-6" x="141.7" y="122.81" width="9.45" height="9.45"/><rect class="cls-6" x="141.7" y="113.36" width="9.45" height="9.45"/><rect class="cls-6" x="141.7" y="103.91" width="9.45" height="9.45"/><rect class="cls-6" x="151.15" y="103.91" width="9.45" height="9.45"/><rect class="cls-6" x="160.6" y="94.47" width="9.45" height="9.45"/><rect class="cls-6" x="170.04" y="85.02" width="9.45" height="9.45"/><rect class="cls-6" x="18.89" y="94.47" width="9.45" height="9.45"/><rect class="cls-4" x="56.68" y="18.89" width="9.45" height="9.45"/><rect class="cls-5" x="66.13" y="18.89" width="9.45" height="9.45"/><rect class="cls-4" x="75.57" y="28.34" width="9.45" height="9.45"/><rect class="cls-4" x="56.68" y="28.34" width="9.45" height="9.45"/><rect class="cls-5" x="66.13" y="28.34" width="9.45" height="9.45"/><rect class="cls-5" x="75.57" y="37.79" width="9.45" height="9.45"/><rect class="cls-4" x="56.68" y="37.79" width="9.45" height="9.45"/><rect class="cls-4" x="66.13" y="37.79" width="9.45" height="9.45"/><rect class="cls-5" x="75.57" y="47.23" width="9.45" height="9.45"/><rect class="cls-5" x="56.68" y="47.23" width="9.45" height="9.45"/><rect class="cls-4" x="66.13" y="47.23" width="9.45" height="9.45"/><rect class="cls-4" x="94.47" y="37.79" width="9.45" height="9.45"/><rect class="cls-4" x="94.47" y="47.23" width="9.45" height="9.45"/><rect class="cls-4" x="94.47" y="56.68" width="9.45" height="9.45"/><rect class="cls-4" x="94.47" y="66.13" width="9.45" height="9.45"/><rect class="cls-4" x="94.47" y="75.57" width="9.45" height="9.45"/><rect class="cls-4" x="85.02" y="56.68" width="9.45" height="9.45"/><rect class="cls-4" x="85.02" y="66.13" width="9.45" height="9.45"/><rect class="cls-4" x="85.02" y="75.57" width="9.45" height="9.45"/><rect class="cls-4" x="85.02" y="85.02" width="9.45" height="9.45"/><rect class="cls-2" x="94.47" y="85.02" width="9.45" height="9.45"/><rect class="cls-5" x="75.57" y="56.68" width="9.45" height="9.45"/><rect class="cls-4" x="75.57" y="66.13" width="9.45" height="9.45"/><rect class="cls-1" x="75.57" y="75.57" width="9.45" height="9.45"/><rect class="cls-6" x="75.57" y="85.02" width="9.45" height="9.45"/><rect class="cls-4" x="66.13" y="56.68" width="9.45" height="9.45"/><rect class="cls-4" x="66.13" y="66.13" width="9.45" height="9.45"/><rect class="cls-4" x="66.13" y="75.57" width="9.45" height="9.45"/><rect class="cls-4" x="66.13" y="85.02" width="9.45" height="9.45"/><rect class="cls-4" x="56.68" y="56.68" width="9.45" height="9.45"/><rect class="cls-4" x="56.68" y="66.13" width="9.45" height="9.45"/><rect class="cls-4" x="56.68" y="75.57" width="9.45" height="9.45"/><rect class="cls-4" x="56.68" y="85.02" width="9.45" height="9.45"/><rect class="cls-5" x="47.23" y="37.79" width="9.45" height="9.45"/><rect class="cls-4" x="47.23" y="47.23" width="9.45" height="9.45"/><rect class="cls-4" x="47.23" y="56.68" width="9.45" height="9.45"/><rect class="cls-4" x="47.23" y="66.13" width="9.45" height="9.45"/><rect class="cls-4" x="47.23" y="75.57" width="9.45" height="9.45"/><rect class="cls-4" x="37.79" y="47.23" width="9.45" height="9.45"/><rect class="cls-4" x="28.34" y="56.78" width="9.45" height="9.45"/><rect class="cls-4" x="28.34" y="66.22" width="9.45" height="9.45"/><rect class="cls-4" x="28.34" y="75.62" width="9.45" height="9.45"/><rect class="cls-4" x="28.34" y="85.02" width="9.45" height="9.45"/><rect class="cls-6" x="37.79" y="75.57" width="9.45" height="9.45"/><rect class="cls-4" x="37.79" y="85.02" width="9.45" height="9.45"/><rect class="cls-1" x="37.79" y="66.13" width="9.45" height="9.45"/><rect class="cls-4" x="37.79" y="56.68" width="9.45" height="9.45"/><rect class="cls-4" x="132.26" y="103.91" width="9.45" height="9.45"/><rect class="cls-4" x="132.26" y="113.36" width="9.45" height="9.45"/><rect class="cls-4" x="132.26" y="122.81" width="9.45" height="9.45"/><rect class="cls-2" x="122.81" y="75.57" width="9.45" height="9.45"/><rect class="cls-6" x="122.81" y="103.91" width="9.45" height="9.45"/><rect class="cls-4" x="122.81" y="113.36" width="9.45" height="9.45"/><rect class="cls-2" x="113.36" y="75.57" width="9.45" height="9.45"/><rect class="cls-2" x="113.36" y="103.91" width="9.45" height="9.45"/><rect class="cls-6" x="113.36" y="113.36" width="9.45" height="9.45"/><rect class="cls-4" x="103.91" y="47.33" width="9.45" height="9.45"/><rect class="cls-4" x="103.91" y="56.78" width="9.45" height="9.45"/><rect class="cls-4" x="103.91" y="66.13" width="9.45" height="9.45"/><rect class="cls-2" x="103.91" y="75.57" width="9.45" height="9.45"/><rect class="cls-2" x="103.91" y="85.02" width="9.45" height="9.45"/><rect class="cls-4" x="47.23" y="85.02" width="9.45" height="9.45"/><rect class="cls-4" x="85.02" y="94.47" width="9.45" height="9.45"/><rect class="cls-2" x="94.47" y="94.47" width="9.45" height="9.45"/><rect class="cls-4" x="75.57" y="94.47" width="9.45" height="9.45"/><rect class="cls-4" x="66.13" y="94.47" width="9.45" height="9.45"/><rect class="cls-4" x="56.68" y="94.47" width="9.45" height="9.45"/><rect class="cls-2" x="28.34" y="94.47" width="9.45" height="9.45"/><rect class="cls-3" x="37.79" y="94.47" width="9.45" height="9.45"/><rect class="cls-2" x="103.91" y="94.47" width="9.45" height="9.45"/><rect class="cls-4" x="47.23" y="94.47" width="9.45" height="9.45"/><rect class="cls-3" x="47.23" y="103.91" width="9.45" height="9.45"/><rect class="cls-3" x="56.68" y="103.91" width="9.45" height="9.45"/><rect class="cls-3" x="66.13" y="103.91" width="9.45" height="9.45"/><rect class="cls-3" x="75.57" y="103.91" width="9.45" height="9.45"/><rect class="cls-4" x="85.02" y="103.91" width="9.45" height="9.45"/><rect class="cls-5" x="66.13" y="113.36" width="9.45" height="9.45"/><rect class="cls-5" x="75.57" y="113.36" width="9.45" height="9.45"/><rect class="cls-5" x="85.02" y="113.36" width="9.45" height="9.45"/><rect class="cls-6" x="94.47" y="103.91" width="9.45" height="9.45"/><rect class="cls-2" x="103.91" y="103.91" width="9.45" height="9.45"/><rect class="cls-5" x="94.47" y="113.36" width="9.45" height="9.45"/><rect class="cls-6" x="103.91" y="113.36" width="9.45" height="9.45"/><rect class="cls-6" x="122.81" y="66.13" width="9.45" height="9.45"/><rect class="cls-4" x="113.36" y="56.68" width="9.45" height="9.45"/><rect class="cls-6" x="113.36" y="66.13" width="9.45" height="9.45"/><rect class="cls-6" x="132.26" y="85.02" width="9.45" height="9.45"/><rect class="cls-3" x="141.7" y="85.02" width="9.45" height="9.45"/><rect class="cls-2" x="122.81" y="85.02" width="9.45" height="9.45"/><rect class="cls-2" x="113.36" y="85.02" width="9.45" height="9.45"/><rect class="cls-5" x="151.15" y="85.02" width="9.45" height="9.45"/><rect class="cls-6" x="132.26" y="94.47" width="9.45" height="9.45"/><rect class="cls-5" x="141.7" y="94.47" width="9.45" height="9.45"/><rect class="cls-6" x="122.81" y="94.47" width="9.45" height="9.45"/><rect class="cls-2" x="113.36" y="94.47" width="9.45" height="9.45"/><rect class="cls-5" x="151.15" y="94.47" width="9.45" height="9.45"/><rect class="cls-6" x="132.26" y="75.57" width="9.45" height="9.45"/><rect class="cls-3" x="132.26" y="66.13" width="9.45" height="9.45"/><rect class="cls-3" x="141.7" y="75.57" width="9.45" height="9.45"/><rect class="cls-5" x="141.7" y="66.13" width="9.45" height="9.45"/><rect class="cls-3" x="141.7" y="56.68" width="9.45" height="9.45"/><rect class="cls-5" x="151.15" y="56.68" width="9.45" height="9.45"/><rect class="cls-5" x="151.15" y="75.57" width="9.45" height="9.45"/><rect class="cls-3" x="151.15" y="66.13" width="9.45" height="9.45"/><rect class="cls-3" x="151.15" y="47.23" width="9.45" height="9.45"/><rect class="cls-3" x="160.6" y="47.23" width="9.45" height="9.45"/><rect class="cls-5" x="160.6" y="85.02" width="9.45" height="9.45"/><rect class="cls-5" x="160.6" y="56.68" width="9.45" height="9.45"/><rect class="cls-3" x="160.6" y="75.57" width="9.45" height="9.45"/><rect class="cls-3" x="160.6" y="66.13" width="9.45" height="9.45"/></g></svg>