<?xml version="1.0" encoding="UTF-8"?><svg id="Layer_2" xmlns="http://www.w3.org/2000/svg" viewBox="0 0 188.94 188.94"><defs><style>.cls-1{fill:#f1ea36;}.cls-2{fill:#f9a67e;}.cls-3{fill:#6056a5;}.cls-4{fill:#9064a0;}.cls-5{fill:#171717;}.cls-6{fill:#fff3a8;}.cls-7{fill:#d68663;}</style></defs><g id="Shiny_Skitty"><rect class="cls-5" x="18.89" y="9.45" width="9.45" height="9.45"/><rect class="cls-5" x="28.34" y="18.89" width="9.45" height="9.45"/><rect class="cls-5" x="37.79" y="28.34" width="9.45" height="9.45"/><rect class="cls-5" x="47.23" y="37.79" width="9.45" height="9.45"/><rect class="cls-5" x="47.23" y="47.23" width="9.45" height="9.45"/><rect class="cls-5" x="56.68" y="47.23" width="9.45" height="9.45"/><rect class="cls-5" x="66.13" y="47.23" width="9.45" height="9.45"/><rect class="cls-5" x="37.79" y="47.23" width="9.45" height="9.45"/><rect class="cls-5" x="28.34" y="56.68" width="9.45" height="9.45"/><rect class="cls-5" x="18.89" y="56.68" width="9.45" height="9.45"/><rect class="cls-5" x="75.57" y="47.23" width="9.45" height="9.45"/><rect class="cls-5" x="85.02" y="56.68" width="9.45" height="9.45"/><rect class="cls-5" x="94.47" y="56.68" width="9.45" height="9.45"/><rect class="cls-5" x="85.02" y="66.13" width="9.45" height="9.45"/><rect class="cls-5" x="85.02" y="75.57" width="9.45" height="9.45"/><rect class="cls-5" x="85.02" y="85.02" width="9.45" height="9.45"/><rect class="cls-5" x="94.47" y="94.47" width="9.45" height="9.45"/><rect class="cls-5" x="103.91" y="103.91" width="9.45" height="9.45"/><rect class="cls-5" x="113.36" y="103.91" width="9.45" height="9.45"/><rect class="cls-5" x="103.91" y="56.68" width="9.45" height="9.45"/><rect class="cls-5" x="9.45" y="18.89" width="9.45" height="9.45"/><rect class="cls-5" x="9.45" y="28.34" width="9.45" height="9.45"/><rect class="cls-5" x="9.45" y="37.79" width="9.45" height="9.45"/><rect class="cls-5" x="9.45" y="47.23" width="9.45" height="9.45"/><rect class="cls-5" x="9.45" y="56.68" width="9.45" height="9.45"/><rect class="cls-5" x="9.45" y="66.13" width="9.45" height="9.45"/><rect class="cls-5" x="9.45" y="75.57" width="9.45" height="9.45"/><rect class="cls-5" y="85.02" width="9.45" height="9.45"/><rect class="cls-5" y="94.47" width="9.45" height="9.45"/><rect class="cls-5" y="103.91" width="9.45" height="9.45"/><rect class="cls-5" x="9.45" y="113.36" width="9.45" height="9.45"/><rect class="cls-5" x="18.89" y="122.81" width="9.45" height="9.45"/><rect class="cls-5" x="28.34" y="132.26" width="9.45" height="9.45"/><rect class="cls-5" x="37.79" y="132.26" width="9.45" height="9.45"/><rect class="cls-5" x="113.36" y="113.36" width="9.45" height="9.45"/><rect class="cls-5" x="122.81" y="113.36" width="9.45" height="9.45"/><rect class="cls-5" x="122.81" y="122.81" width="9.45" height="9.45"/><rect class="cls-5" x="122.81" y="132.26" width="9.45" height="9.45"/><rect class="cls-5" x="122.81" y="141.7" width="9.45" height="9.45"/><rect class="cls-5" x="122.81" y="151.15" width="9.45" height="9.45"/><rect class="cls-5" x="132.26" y="113.36" width="9.45" height="9.45"/><rect class="cls-5" x="141.7" y="103.91" width="9.45" height="9.45"/><rect class="cls-5" x="151.15" y="103.91" width="9.45" height="9.45"/><rect class="cls-5" x="160.6" y="94.47" width="9.45" height="9.45"/><rect class="cls-5" x="170.04" y="85.02" width="9.45" height="9.45"/><rect class="cls-5" x="103.91" y="122.81" width="9.45" height="9.45"/><rect class="cls-5" x="94.47" y="132.26" width="9.45" height="9.45"/><rect class="cls-5" x="85.02" y="132.26" width="9.45" height="9.45"/><rect class="cls-5" x="47.23" y="141.7" width="9.45" height="9.45"/><rect class="cls-5" x="56.68" y="141.7" width="9.45" height="9.45"/><rect class="cls-5" x="66.13" y="141.7" width="9.45" height="9.45"/><rect class="cls-5" x="75.57" y="141.7" width="9.45" height="9.45"/><rect class="cls-5" x="28.34" y="141.7" width="9.45" height="9.45"/><rect class="cls-5" x="37.79" y="151.15" width="9.45" height="9.45"/><rect class="cls-5" x="37.79" y="160.6" width="9.45" height="9.45"/><rect class="cls-5" x="47.23" y="170.04" width="9.45" height="9.45"/><rect class="cls-5" x="56.68" y="160.6" width="9.45" height="9.45"/><rect class="cls-5" x="66.13" y="160.6" width="9.45" height="9.45"/><rect class="cls-5" x="75.57" y="170.04" width="9.45" height="9.45"/><rect class="cls-5" x="85.02" y="179.49" width="9.45" height="9.45"/><rect class="cls-5" x="94.47" y="170.04" width="9.45" height="9.45"/><rect class="cls-5" x="94.47" y="160.6" width="9.45" height="9.45"/><rect class="cls-5" x="103.91" y="160.6" width="9.45" height="9.45"/><rect class="cls-5" x="113.36" y="160.6" width="9.45" height="9.45"/><rect class="cls-5" x="103.91" y="151.15" width="9.45" height="9.45"/><rect class="cls-5" x="113.36" y="141.7" width="9.45" height="9.45"/><rect class="cls-5" x="113.36" y="122.81" width="9.45" height="9.45"/><rect class="cls-5" x="113.36" y="47.23" width="9.45" height="9.45"/><rect class="cls-5" x="122.81" y="47.23" width="9.45" height="9.45"/><rect class="cls-5" x="132.26" y="47.23" width="9.45" height="9.45"/><rect class="cls-5" x="132.26" y="37.79" width="9.45" height="9.45"/><rect class="cls-5" x="132.26" y="28.34" width="9.45" height="9.45"/><rect class="cls-5" x="122.81" y="18.89" width="9.45" height="9.45"/><rect class="cls-5" x="132.26" y="9.45" width="9.45" height="9.45"/><rect class="cls-5" x="141.7" y="9.45" width="9.45" height="9.45"/><rect class="cls-5" x="151.15" width="9.45" height="9.45"/><rect class="cls-5" x="151.15" y="18.89" width="9.45" height="9.45"/><rect class="cls-5" x="160.6" y="9.45" width="9.45" height="9.45"/><rect class="cls-5" x="170.04" y="9.45" width="9.45" height="9.45"/><rect class="cls-5" x="160.6" y="18.89" width="9.45" height="9.45"/><rect class="cls-5" x="170.04" y="28.34" width="9.45" height="9.45"/><rect class="cls-5" x="179.49" y="18.89" width="9.45" height="9.45"/><rect class="cls-5" x="141.7" y="18.89" width="9.45" height="9.45"/><rect class="cls-5" x="141.7" y="28.34" width="9.45" height="9.45"/><rect class="cls-5" x="151.15" y="28.34" width="9.45" height="9.45"/><rect class="cls-5" x="160.6" y="37.79" width="9.45" height="9.45"/><rect class="cls-5" x="170.04" y="47.23" width="9.45" height="9.45"/><rect class="cls-5" x="170.04" y="56.68" width="9.45" height="9.45"/><rect class="cls-5" x="170.04" y="66.13" width="9.45" height="9.45"/><rect class="cls-5" x="170.04" y="75.57" width="9.45" height="9.45"/><rect class="cls-5" x="141.7" y="47.23" width="9.45" height="9.45"/><rect class="cls-5" x="151.15" y="56.68" width="9.45" height="9.45"/><rect class="cls-5" x="151.15" y="66.13" width="9.45" height="9.45"/><rect class="cls-5" x="141.7" y="75.57" width="9.45" height="9.45"/><rect class="cls-5" x="132.26" y="85.02" width="9.45" height="9.45"/><rect class="cls-5" x="132.26" y="94.47" width="9.45" height="9.45"/><rect class="cls-5" x="122.81" y="94.47" width="9.45" height="9.45"/><rect class="cls-5" x="18.89" y="103.91" width="9.45" height="9.45"/><rect class="cls-5" x="18.89" y="94.47" width="9.45" height="9.45"/><rect class="cls-5" x="18.89" y="85.02" width="9.45" height="9.45"/><rect class="cls-6" x="132.26" y="18.89" width="9.45" height="9.45"/><rect class="cls-6" x="151.15" y="9.45" width="9.45" height="9.45"/><rect class="cls-6" x="170.04" y="18.89" width="9.45" height="9.45"/><rect class="cls-2" x="141.7" y="37.79" width="9.45" height="9.45"/><rect class="cls-2" x="151.15" y="37.79" width="9.45" height="9.45"/><rect class="cls-2" x="151.15" y="47.23" width="9.45" height="9.45"/><rect class="cls-7" x="160.6" y="46.98" width="9.45" height="9.45"/><rect class="cls-7" x="160.6" y="56.43" width="9.45" height="9.45"/><rect class="cls-7" x="160.6" y="65.87" width="9.45" height="9.45"/><rect class="cls-7" x="160.6" y="75.32" width="9.45" height="9.45"/><rect class="cls-7" x="151.15" y="75.32" width="9.45" height="9.45"/><rect class="cls-7" x="151.15" y="84.77" width="9.45" height="9.45"/><rect class="cls-7" x="160.6" y="84.77" width="9.45" height="9.45"/><rect class="cls-7" x="141.7" y="84.77" width="9.45" height="9.45"/><rect class="cls-7" x="141.7" y="94.21" width="9.45" height="9.45"/><rect class="cls-7" x="151.15" y="94.21" width="9.45" height="9.45"/><rect class="cls-4" x="132.26" y="75.57" width="9.45" height="9.45"/><rect class="cls-4" x="122.81" y="75.57" width="9.45" height="9.45"/><rect class="cls-4" x="141.7" y="66.13" width="9.45" height="9.45"/><rect class="cls-4" x="122.81" y="85.02" width="9.45" height="9.45"/><rect class="cls-4" x="113.36" y="94.47" width="9.45" height="9.45"/><rect class="cls-4" x="113.36" y="85.02" width="9.45" height="9.45"/><rect class="cls-4" x="103.91" y="85.02" width="9.45" height="9.45"/><rect class="cls-4" x="103.91" y="94.47" width="9.45" height="9.45"/><rect class="cls-7" x="132.26" y="65.87" width="9.45" height="9.45"/><rect class="cls-7" x="113.36" y="75.32" width="9.45" height="9.45"/><rect class="cls-7" x="94.47" y="84.77" width="9.45" height="9.45"/><rect class="cls-2" x="122.81" y="66.13" width="9.45" height="9.45"/><rect class="cls-2" x="113.36" y="66.13" width="9.45" height="9.45"/><rect class="cls-2" x="113.36" y="56.68" width="9.45" height="9.45"/><rect class="cls-2" x="122.81" y="56.68" width="9.45" height="9.45"/><rect class="cls-2" x="132.26" y="56.68" width="9.45" height="9.45"/><rect class="cls-2" x="141.7" y="56.68" width="9.45" height="9.45"/><rect class="cls-2" x="103.91" y="66.13" width="9.45" height="9.45"/><rect class="cls-2" x="94.47" y="66.13" width="9.45" height="9.45"/><rect class="cls-2" x="94.47" y="75.57" width="9.45" height="9.45"/><rect class="cls-2" x="66.13" y="75.57" width="9.45" height="9.45"/><rect class="cls-2" x="66.13" y="85.02" width="9.45" height="9.45"/><rect class="cls-2" x="56.68" y="85.02" width="9.45" height="9.45"/><rect class="cls-2" x="47.23" y="85.02" width="9.45" height="9.45"/><rect class="cls-2" x="37.79" y="85.02" width="9.45" height="9.45"/><rect class="cls-2" x="37.79" y="75.57" width="9.45" height="9.45"/><rect class="cls-2" x="28.34" y="75.57" width="9.45" height="9.45"/><rect class="cls-2" x="28.34" y="66.13" width="9.45" height="9.45"/><rect class="cls-2" x="37.79" y="56.68" width="9.45" height="9.45"/><rect class="cls-2" x="28.34" y="37.79" width="9.45" height="9.45"/><rect class="cls-2" x="28.34" y="28.34" width="9.45" height="9.45"/><rect class="cls-2" x="18.89" y="28.34" width="9.45" height="9.45"/><rect class="cls-2" x="18.89" y="18.89" width="9.45" height="9.45"/><rect class="cls-2" x="47.23" y="56.68" width="9.45" height="9.45"/><rect class="cls-2" x="56.68" y="56.68" width="9.45" height="9.45"/><rect class="cls-2" x="18.89" y="66.13" width="9.45" height="9.45"/><rect class="cls-2" x="37.79" y="66.13" width="9.45" height="9.45"/><rect class="cls-2" x="47.23" y="66.13" width="9.45" height="9.45"/><rect class="cls-2" x="56.68" y="66.13" width="9.45" height="9.45"/><rect class="cls-2" x="66.13" y="66.13" width="9.45" height="9.45"/><rect class="cls-2" x="75.57" y="66.13" width="9.45" height="9.45"/><rect class="cls-2" x="75.57" y="56.68" width="9.45" height="9.45"/><rect class="cls-2" x="66.13" y="56.68" width="9.45" height="9.45"/><rect class="cls-2" x="56.68" y="75.57" width="9.45" height="9.45"/><rect class="cls-2" x="47.23" y="75.57" width="9.45" height="9.45"/><rect class="cls-2" x="103.91" y="75.57" width="9.45" height="9.45"/><rect class="cls-6" x="113.36" y="151.15" width="9.45" height="9.45"/><rect class="cls-6" x="85.02" y="170.04" width="9.45" height="9.45"/><rect class="cls-6" x="47.23" y="160.6" width="9.45" height="9.45"/><rect class="cls-6" x="56.68" y="151.15" width="9.45" height="9.45"/><rect class="cls-6" x="66.13" y="151.15" width="9.45" height="9.45"/><rect class="cls-6" x="75.57" y="151.15" width="9.45" height="9.45"/><rect class="cls-6" x="75.57" y="160.6" width="9.45" height="9.45"/><rect class="cls-7" x="37.79" y="141.45" width="9.45" height="9.45"/><rect class="cls-7" x="47.23" y="150.89" width="9.45" height="9.45"/><rect class="cls-7" x="85.02" y="150.89" width="9.45" height="9.45"/><rect class="cls-7" x="85.02" y="160.34" width="9.45" height="9.45"/><rect class="cls-7" x="85.02" y="141.45" width="9.45" height="9.45"/><rect class="cls-7" x="75.57" y="132" width="9.45" height="9.45"/><rect class="cls-7" x="85.02" y="122.55" width="9.45" height="9.45"/><rect class="cls-7" x="94.47" y="122.55" width="9.45" height="9.45"/><rect class="cls-7" x="94.47" y="113.11" width="9.45" height="9.45"/><rect class="cls-7" x="94.47" y="103.91" width="9.45" height="9.45"/><rect class="cls-7" x="103.91" y="113.36" width="9.45" height="9.45"/><rect class="cls-7" x="94.47" y="141.45" width="9.45" height="9.45"/><rect class="cls-7" x="94.47" y="150.89" width="9.45" height="9.45"/><rect class="cls-7" x="103.91" y="141.45" width="9.45" height="9.45"/><rect class="cls-7" x="103.91" y="132" width="9.45" height="9.45"/><rect class="cls-7" x="113.36" y="132" width="9.45" height="9.45"/><rect class="cls-6" x="9.45" y="85.02" width="9.45" height="9.45"/><rect class="cls-6" x="9.45" y="94.47" width="9.45" height="9.45"/><rect class="cls-6" x="9.45" y="103.91" width="9.45" height="9.45"/><rect class="cls-6" x="18.89" y="113.36" width="9.45" height="9.45"/><rect class="cls-6" x="28.34" y="122.81" width="9.45" height="9.45"/><rect class="cls-7" x="28.34" y="113.11" width="9.45" height="9.45"/><rect class="cls-7" x="47.23" y="94.21" width="9.45" height="9.45"/><rect class="cls-7" x="56.68" y="94.21" width="9.45" height="9.45"/><rect class="cls-7" x="75.57" y="75.32" width="9.45" height="9.45"/><rect class="cls-6" x="37.79" y="122.81" width="9.45" height="9.45"/><rect class="cls-6" x="47.23" y="132.26" width="9.45" height="9.45"/><rect class="cls-6" x="56.68" y="132.26" width="9.45" height="9.45"/><rect class="cls-6" x="66.13" y="132.26" width="9.45" height="9.45"/><rect class="cls-6" x="66.13" y="122.81" width="9.45" height="9.45"/><rect class="cls-6" x="47.23" y="122.81" width="9.45" height="9.45"/><rect class="cls-1" x="75.57" y="122.81" width="9.45" height="9.45"/><rect class="cls-6" x="75.57" y="122.81" width="9.45" height="9.45"/><rect class="cls-6" x="85.02" y="113.36" width="9.45" height="9.45"/><rect class="cls-6" x="85.02" y="103.91" width="9.45" height="9.45"/><rect class="cls-6" x="85.02" y="94.47" width="9.45" height="9.45"/><rect class="cls-6" x="75.57" y="94.47" width="9.45" height="9.45"/><rect class="cls-6" x="66.13" y="94.47" width="9.45" height="9.45"/><rect class="cls-6" x="75.57" y="85.02" width="9.45" height="9.45"/><rect class="cls-6" x="75.57" y="103.91" width="9.45" height="9.45"/><rect class="cls-6" x="66.13" y="103.91" width="9.45" height="9.45"/><rect class="cls-6" x="56.68" y="103.91" width="9.45" height="9.45"/><rect class="cls-6" x="47.23" y="103.91" width="9.45" height="9.45"/><rect class="cls-6" x="37.79" y="103.91" width="9.45" height="9.45"/><rect class="cls-6" x="28.34" y="103.91" width="9.45" height="9.45"/><rect class="cls-6" x="28.34" y="94.47" width="9.45" height="9.45"/><rect class="cls-6" x="28.34" y="85.02" width="9.45" height="9.45"/><rect class="cls-6" x="18.89" y="75.57" width="9.45" height="9.45"/><rect class="cls-6" x="37.79" y="94.47" width="9.45" height="9.45"/><rect class="cls-6" x="37.79" y="113.36" width="9.45" height="9.45"/><rect class="cls-6" x="47.23" y="113.36" width="9.45" height="9.45"/><rect class="cls-6" x="56.68" y="113.36" width="9.45" height="9.45"/><rect class="cls-5" x="75.57" y="113.36" width="9.45" height="9.45"/><rect class="cls-5" x="66.13" y="113.36" width="9.45" height="9.45"/><rect class="cls-5" x="56.68" y="122.81" width="9.45" height="9.45"/><rect class="cls-4" x="18.89" y="47.23" width="9.45" height="9.45"/><rect class="cls-3" x="28.34" y="47.23" width="9.45" height="9.45"/><rect class="cls-3" x="18.89" y="37.79" width="9.45" height="9.45"/><rect class="cls-7" x="18.89" y="37.53" width="9.45" height="9.45"/><rect class="cls-7" x="37.79" y="37.53" width="9.45" height="9.45"/><rect class="cls-7" x="28.34" y="46.98" width="9.45" height="9.45"/></g></svg>